<?xml version="1.0" encoding="utf-8"?>
<!-- Generator: Adobe Illustrator 16.0.0, SVG Export Plug-In . SVG Version: 6.00 Build 0)  -->
<!DOCTYPE svg PUBLIC "-//W3C//DTD SVG 1.1//EN" "http://www.w3.org/Graphics/SVG/1.1/DTD/svg11.dtd">
<svg version="1.1" xmlns="http://www.w3.org/2000/svg" xmlns:xlink="http://www.w3.org/1999/xlink" x="0px" y="0px"
	 width="595.28px" height="595.28px" viewBox="0 0 595.28 595.28" enable-background="new 0 0 595.28 595.28" xml:space="preserve">
<g id="圖層_3" display="none">
	<rect y="9" display="inline" fill="#F5C924" width="595.28" height="586.28"/>
</g>
<g id="圖層_4">
</g>
<g id="圖層_2" display="none">
	<g display="inline">
		<path fill="none" stroke="#000000" stroke-width="8" stroke-linecap="round" stroke-miterlimit="10" d="M220.653,367.238
			c0,0,1.867,16.014,0.495,22.393"/>
		<path fill="none" stroke="#000000" stroke-width="5" stroke-miterlimit="10" d="M237.999,350.998
			c-5.072-5.072-23.098-11.5-35.583-11.5c-11.337,0-28.405,5.949-34.75,11.5c-4.258,3.725-6.265,11.732-6.333,19.395
			c-0.182,20.262,11.666,24.271,27.666,22.605c4.452,0.99,8.755,3.584,13.923,3.584c6.446,0,12.313-2.898,17.411-4.584
			c13.964-4.621,22.847,2.025,23.166-21.605C243.582,364.248,241.499,354.498,237.999,350.998z"/>
		<path fill="none" stroke="#000000" stroke-width="8" stroke-linecap="round" stroke-miterlimit="10" d="M187.999,367.998
			c0,2.326-1.544,18.592,0.054,22.969"/>
	</g>
	<path display="inline" fill="none" stroke="#000000" stroke-width="8" stroke-miterlimit="10" d="M381.785,170.329
		c23.81-14.966,54.869-4.399,67.801,15.58c16.804,25.96,11.374,72.49-30.833,93.333c4.082,34.015-8.947,55.712-8.947,55.712"/>
	
		<path display="inline" fill="none" stroke="#000000" stroke-width="5" stroke-linecap="round" stroke-linejoin="round" stroke-miterlimit="10" d="
		M386.319,196.534c14.897-8.595,32.443-9.33,41.555,7.861c7.286,13.744-0.311,32.006-14.618,44.719l-23.601-36.586"/>
	<path display="inline" fill="none" stroke="#000000" stroke-width="8" stroke-miterlimit="10" d="M214.672,170.329
		c-23.81-14.966-54.869-4.399-67.801,15.58c-16.804,25.96-11.374,72.49,30.833,93.333c-4.082,34.014,8.947,55.711,8.947,55.711"/>
	
		<path display="inline" fill="none" stroke="#000000" stroke-width="5" stroke-linecap="round" stroke-linejoin="round" stroke-miterlimit="10" d="
		M210.138,196.534c-14.897-8.595-32.443-9.33-41.555,7.861c-7.286,13.744,0.311,32.006,14.618,44.719l23.601-36.586"/>
	<ellipse display="inline" cx="340.818" cy="281.887" rx="9.184" ry="14.283"/>
	<ellipse display="inline" cx="255.769" cy="281.887" rx="9.184" ry="14.283"/>
	<g display="inline">
		<path fill="none" stroke="#000000" stroke-width="8" stroke-linecap="round" stroke-miterlimit="10" d="M415.9,366.898
			c0,0,1.867,16.014,0.495,22.393"/>
		<path fill="none" stroke="#000000" stroke-width="5" stroke-miterlimit="10" d="M433.246,350.658
			c-5.072-5.072-23.098-11.5-35.583-11.5c-11.337,0-28.405,5.949-34.75,11.5c-4.258,3.725-6.265,11.732-6.333,19.395
			c-0.182,20.262,11.666,24.271,27.666,22.605c4.452,0.99,8.755,3.584,13.923,3.584c6.446,0,12.313-2.898,17.411-4.584
			c13.964-4.621,22.847,2.025,23.166-21.605C438.829,363.908,436.746,354.158,433.246,350.658z"/>
		<path fill="none" stroke="#000000" stroke-width="8" stroke-linecap="round" stroke-miterlimit="10" d="M383.246,367.658
			c0,2.326-1.544,18.592,0.054,22.969"/>
	</g>
	<path display="inline" d="M286.656,318.505c2.479-3.505,20.463-3.267,22.876-0.274c2.018,2.501-4.412,14.287-10.921,14.287
		C292.469,332.518,284.354,321.761,286.656,318.505z"/>
	<path display="inline" fill="none" stroke="#000000" stroke-width="5" stroke-linecap="round" stroke-miterlimit="10" d="
		M298.294,332.517v6.642c0,0,19.54,17.509,25.373-2.491"/>
	<path display="inline" fill="none" stroke="#000000" stroke-width="5" stroke-linecap="round" stroke-miterlimit="10" d="
		M298.294,332.517v6.642c0,0-19.54,17.509-25.373-2.491"/>
	<path display="inline" fill="none" stroke="#000000" stroke-width="5" stroke-linejoin="round" stroke-miterlimit="10" d="
		M136.667,382.912v133.755c33.75-19.667,109.128-4.321,161.497,18.5c52.368-22.821,131.084-38.167,164.834-18.5V382.912"/>
	<path display="inline" fill="none" stroke="#000000" stroke-width="8" stroke-linejoin="round" stroke-miterlimit="10" d="
		M127.75,388.421V533.83c37.569-31.63,117.954-12.307,170.322,10.515c52.368-22.821,136.273-42.145,173.843-10.515V388.421"/>
	<path display="inline" fill="none" stroke="#000000" stroke-width="5" stroke-linejoin="round" stroke-miterlimit="10" d="
		M249.029,375.642c17.601,4.539,32.675,10.589,49.045,17.723h0.44c16.37-7.134,36.331-13.184,53.932-17.723"/>
	<path display="inline" fill="none" stroke="#000000" stroke-width="5" stroke-miterlimit="10" d="M154.609,379.115l-10.329,2.667
		v124.333c41.016-13.332,101.426-1.603,153.793,21.219c52.368-22.821,116.482-34.551,157.498-21.219V381.782l-10.327-2.667"/>
	<path display="inline" d="M375.307,146.019v75.642c0,0-13.792,18.147-76.222,19.008c-62.427,0.862-78.245-19.008-78.245-19.008
		v-73.105L375.307,146.019z"/>
	<polygon display="inline" stroke="#FFFFFF" stroke-width="7" stroke-miterlimit="10" points="297.408,185.033 467.154,123.675 
		298.072,69.463 128.991,123.675 	"/>
	
		<rect x="144.618" y="134.999" display="inline" stroke="#FFFFFF" stroke-width="5" stroke-miterlimit="10" width="12.54" height="84.862"/>
	<path display="inline" stroke="#FFFFFF" stroke-width="5" stroke-miterlimit="10" d="M150.888,219.861
		c-1.717,1-10.891,6.809-13.153,17.973v48.372h13.153h13.153v-48.372C161.779,226.669,152.605,220.861,150.888,219.861z"/>
	<g display="inline">
		<path stroke="#000000" stroke-width="6" stroke-miterlimit="10" d="M207.002,464.738c-0.449,0-1-0.104-1.656-0.312
			c-0.656-0.209-1.232-0.585-1.728-1.128c-0.496-0.545-0.744-1.345-0.744-2.4c0-0.928,0.199-2.144,0.6-3.647
			c0.4-1.504,0.904-3.192,1.512-5.064c0.607-1.872,1.216-3.84,1.824-5.904c0.607-2.063,1.111-4.135,1.512-6.216
			c0.4-2.08,0.6-4.08,0.6-6c0-1.184-0.041-2.287-0.12-3.312c-0.08-1.024-0.32-1.849-0.72-2.473c-0.401-0.624-1.08-0.936-2.04-0.936
			c-0.896,0-1.656,0.264-2.28,0.792c-0.624,0.527-1.136,1.208-1.536,2.04c-0.401,0.832-0.688,1.712-0.864,2.64
			c-0.176,0.929-0.264,1.793-0.264,2.592c0,0.513,0.04,0.984,0.12,1.416c0.08,0.433,0.184,0.824,0.312,1.177
			c-1.248,0-2.128-0.344-2.64-1.032c-0.512-0.688-0.768-1.496-0.768-2.424c0-0.992,0.231-1.984,0.696-2.977
			c0.463-0.991,1.104-1.911,1.92-2.76c0.816-0.848,1.752-1.527,2.808-2.04c1.056-0.512,2.176-0.768,3.36-0.768
			c1.984,0,3.463,0.775,4.44,2.327c0.976,1.553,1.464,3.624,1.464,6.217c0,1.855-0.208,3.8-0.624,5.832
			c-0.417,2.032-0.929,4.056-1.536,6.071c-0.608,2.017-1.224,3.953-1.848,5.809c-0.624,1.856-1.145,3.568-1.56,5.136
			c-0.416,1.568-0.624,2.896-0.624,3.984c0,0.543,0.088,0.991,0.264,1.344c0.176,0.352,0.536,0.528,1.08,0.528
			c0.896,0,1.936-0.456,3.12-1.368c1.183-0.912,2.407-2.16,3.672-3.744c1.264-1.584,2.496-3.367,3.696-5.353
			c1.2-1.983,2.28-4.056,3.24-6.216s1.728-4.279,2.304-6.359c0.576-2.08,0.864-4,0.864-5.761c0-1.6-0.24-2.775-0.72-3.527
			s-1.12-1.24-1.92-1.464c0.448-0.769,0.919-1.328,1.416-1.681c0.496-0.352,0.952-0.527,1.368-0.527
			c0.672,0,1.328,0.432,1.968,1.296c0.64,0.863,0.96,2.208,0.96,4.031c0,1.761-0.328,3.761-0.984,6
			c-0.656,2.24-1.544,4.568-2.664,6.984c-1.121,2.416-2.4,4.76-3.84,7.032s-2.944,4.319-4.512,6.144s-3.12,3.28-4.656,4.368
			S208.314,464.738,207.002,464.738z"/>
		<path stroke="#000000" stroke-width="6" stroke-miterlimit="10" d="M234.554,464.786c0.128-1.184,0.552-2.04,1.272-2.567
			c0.72-0.528,1.656-0.872,2.808-1.032c1.152-0.16,2.4-0.24,3.744-0.24c0.576-1.248,1.152-2.775,1.728-4.584
			c0.576-1.808,1.128-3.751,1.656-5.832c0.528-2.079,1.048-4.2,1.56-6.359c0.512-2.16,0.992-4.231,1.44-6.217
			c0.448-1.983,0.872-3.768,1.272-5.352c0.4-1.584,0.76-2.84,1.08-3.768c-1.664,0.032-3.08,0.08-4.248,0.144
			c-1.168,0.064-2.256,0.16-3.264,0.288c-1.008,0.128-2.104,0.305-3.288,0.528c0.224-1.216,1.104-2.137,2.64-2.761
			c1.536-0.624,3.919-0.936,7.152-0.936c1.6,0,3.224,0.064,4.872,0.191c1.647,0.129,3.16,0.265,4.536,0.408
			c1.375,0.145,2.431,0.28,3.168,0.408c-0.768,0.768-1.577,1.24-2.424,1.416c-0.848,0.177-1.592,0.264-2.232,0.264
			c-0.992,0-1.928,0-2.808,0c-0.88,0-1.688,0.017-2.424,0.049c-0.128,0.672-0.32,1.72-0.576,3.144
			c-0.256,1.424-0.56,3.057-0.912,4.896c-0.353,1.841-0.72,3.744-1.104,5.713c-0.384,1.968-0.761,3.84-1.128,5.615
			c-0.368,1.776-0.712,3.305-1.032,4.584c-0.512,2.049-1.088,3.776-1.728,5.185c-0.641,1.408-1.409,2.416-2.304,3.023
			c1.664,0.097,3.439,0.265,5.328,0.504c1.888,0.24,3.583,0.376,5.088,0.408c-0.928,0.928-1.896,1.504-2.904,1.729
			c-1.008,0.224-1.848,0.336-2.52,0.336c-1.28,0-2.537,0.007-3.768,0.023c-1.232,0.016-2.448,0.04-3.648,0.072
			c-1.2,0.031-2.384,0.104-3.552,0.216C236.865,464.395,235.706,464.563,234.554,464.786z"/>
		<path stroke="#000000" stroke-width="6" stroke-miterlimit="10" d="M277.227,464.738c-2.272,0-4.104-0.568-5.496-1.704
			s-2.399-2.6-3.024-4.392c-0.623-1.792-0.936-3.664-0.936-5.616c0-2.527,0.384-5.071,1.152-7.632c0.768-2.56,1.815-5,3.144-7.32
			c1.327-2.319,2.839-4.384,4.536-6.191c1.695-1.808,3.48-3.232,5.352-4.272c1.872-1.039,3.721-1.56,5.545-1.56
			c1.311,0,2.375,0.312,3.191,0.936s1.225,1.688,1.225,3.192c0,0.929-0.161,1.976-0.48,3.144c-0.32,1.169-0.752,2.288-1.297,3.36
			c-0.544,1.072-1.145,1.96-1.799,2.664c-0.656,0.704-1.32,1.056-1.992,1.056c-0.257,0-0.521-0.079-0.793-0.24
			c-0.271-0.159-0.504-0.447-0.695-0.863c0.48-0.544,1.016-1.225,1.607-2.04c0.592-0.816,1.16-1.681,1.705-2.593
			c0.543-0.911,0.983-1.807,1.319-2.688c0.336-0.88,0.504-1.656,0.504-2.328c0-0.64-0.185-1.159-0.552-1.56
			c-0.368-0.4-0.969-0.601-1.8-0.601c-1.376,0-2.808,0.561-4.296,1.681s-2.928,2.615-4.32,4.487s-2.648,3.96-3.768,6.265
			c-1.121,2.304-2.009,4.655-2.664,7.056c-0.656,2.4-0.984,4.688-0.984,6.864c0,1.568,0.224,3.064,0.672,4.487
			c0.447,1.425,1.176,2.576,2.184,3.456s2.313,1.32,3.912,1.32c1.696,0,3.385-0.479,5.064-1.44c1.68-0.96,3.224-2.224,4.632-3.792
			c1.407-1.567,2.528-3.264,3.36-5.088l0.672,0.48c-1.057,2.08-2.336,3.992-3.84,5.736c-1.505,1.743-3.185,3.136-5.04,4.176
			C281.37,464.218,279.37,464.738,277.227,464.738z"/>
		<path stroke="#000000" stroke-width="6" stroke-miterlimit="10" d="M310.154,464.738c-1.439,0-2.432-0.32-2.976-0.96
			c-0.545-0.641-0.816-1.456-0.816-2.448c0-0.928,0.192-2.031,0.576-3.312c0.384-1.279,0.784-2.512,1.2-3.696
			c0.544-1.567,1.2-3.408,1.968-5.52c0.769-2.112,1.592-4.32,2.473-6.624c0.879-2.305,1.775-4.576,2.688-6.816
			c0.912-2.239,1.8-4.271,2.664-6.096c-2.208,0.032-4.056,0.08-5.544,0.144c-1.488,0.064-2.824,0.152-4.008,0.265
			c-1.185,0.112-2.48,0.296-3.888,0.552c0.096-1.088,0.654-1.936,1.68-2.544c1.023-0.607,2.399-1.04,4.128-1.296
			c1.728-0.256,3.696-0.384,5.904-0.384s4.183,0.088,5.928,0.264c1.743,0.176,3.384,0.344,4.92,0.504s3.072,0.257,4.608,0.288
			c-1.089,0.992-2.337,1.616-3.744,1.872c-1.409,0.256-2.896,0.384-4.464,0.384c-0.353,0-0.721-0.008-1.104-0.024
			c-0.384-0.016-0.768-0.023-1.152-0.023c-0.384,0-0.768,0-1.151,0c-1.024,2.561-2.201,5.792-3.528,9.696
			c-1.328,3.904-2.664,8.304-4.008,13.199c-0.448,1.697-0.856,3.217-1.225,4.561s-0.656,2.576-0.863,3.696
			c-0.209,1.119-0.313,2.208-0.313,3.264c0,0.159,0,0.336,0,0.528C310.106,464.402,310.122,464.578,310.154,464.738z"/>
		<g>
			<path d="M342.555,464.738c-1.823,0-3.424-0.488-4.8-1.464c-1.376-0.977-2.456-2.36-3.24-4.152
				c-0.784-1.791-1.176-3.888-1.176-6.287c0-2.464,0.392-4.96,1.176-7.488c0.784-2.527,1.849-4.944,3.192-7.248
				s2.863-4.36,4.56-6.168s3.488-3.24,5.376-4.296c1.889-1.057,3.744-1.584,5.568-1.584c0.607,0,1.152,0.048,1.632,0.144
				c0.48,0.096,0.896,0.24,1.248,0.433c-0.256,0-0.408,0-0.456,0s-0.088,0-0.12,0c-1.664,0-3.344,0.552-5.04,1.655
				c-1.696,1.104-3.312,2.592-4.848,4.464s-2.912,3.969-4.128,6.288c-1.217,2.321-2.177,4.729-2.88,7.225
				c-0.704,2.496-1.056,4.912-1.056,7.248c0,1.696,0.216,3.28,0.647,4.752s1.128,2.647,2.088,3.527s2.191,1.32,3.696,1.32
				c1.792,0,3.472-0.552,5.04-1.656c1.567-1.104,2.983-2.6,4.248-4.487c1.264-1.888,2.352-3.992,3.264-6.313
				c0.912-2.319,1.615-4.72,2.112-7.2c0.496-2.479,0.744-4.855,0.744-7.128c0-0.896-0.064-1.855-0.192-2.88
				c-0.128-1.023-0.353-1.903-0.672-2.64c-0.32-0.736-0.752-1.104-1.296-1.104c-0.576,0-1.2,0.36-1.872,1.08
				s-1.32,1.625-1.944,2.712c-0.624,1.089-1.176,2.217-1.655,3.384c-0.48,1.169-0.816,2.201-1.009,3.097
				c-0.8-0.192-1.384-0.504-1.752-0.937c-0.368-0.432-0.552-0.903-0.552-1.416c0-0.863,0.296-1.815,0.888-2.855
				s1.345-2.048,2.257-3.024c0.911-0.976,1.863-1.775,2.855-2.399c0.991-0.624,1.888-0.937,2.688-0.937
				c0.831,0,1.512,0.305,2.04,0.912c0.527,0.608,0.943,1.385,1.247,2.328c0.305,0.944,0.512,1.952,0.624,3.023
				c0.112,1.073,0.169,2.072,0.169,3c0,3.488-0.393,6.665-1.177,9.528c-0.784,2.864-1.84,5.385-3.168,7.561
				s-2.808,4.008-4.439,5.496c-1.632,1.487-3.305,2.607-5.017,3.359S344.091,464.738,342.555,464.738z"/>
			<path d="M342.31,468.194l-0.873-0.023l-0.436-0.011l-0.685-0.111c-0.462-0.087-0.934-0.175-1.382-0.3l-1.181-0.471
				c-0.397-0.152-0.754-0.375-1.108-0.603l-0.53-0.341l-0.261-0.175l-0.065-0.045l-0.032-0.021l-0.215-0.166l-0.01-0.01l-0.08-0.074
				c-0.435-0.418-0.79-0.68-1.47-1.485c-0.277-0.337-0.631-0.714-0.813-1.031l-0.606-0.98c-0.215-0.325-0.347-0.664-0.505-0.999
				l-0.227-0.504l-0.112-0.251l-0.055-0.126l-0.028-0.063l-0.081-0.202l-0.008-0.026l-0.254-0.835
				c-0.085-0.29-0.167-0.514-0.249-0.938c-0.143-0.739-0.35-1.563-0.368-2.211c-0.14-1.387-0.127-2.661-0.012-4.038l0.093-0.869
				l0.049-0.438l0.083-0.502c0.123-0.657,0.21-1.353,0.375-1.966c0.164-0.617,0.309-1.238,0.492-1.844l0.6-1.794l0.019-0.057
				l0.047-0.134l0.006-0.012l0.011-0.025l0.044-0.1l0.089-0.2l0.177-0.399l0.354-0.799l0.707-1.597
				c0.199-0.523,0.572-1.091,0.872-1.636l0.927-1.646l0.463-0.819l0.058-0.102l0.082-0.132l0.031-0.044l0.128-0.177l0.255-0.354
				l1.017-1.419c0.352-0.476,0.625-0.955,1.039-1.429l1.233-1.415l1.28-1.431l1.278-1.188c0.478-0.405,0.99-0.795,1.485-1.184
				c0.512-0.355,1.031-0.691,1.552-1.023c0.574-0.304,1.038-0.568,1.698-0.893c0.56-0.208,1.053-0.427,1.697-0.567
				c0.645-0.139,1.283-0.279,1.915-0.268l0.931-0.024l0.923,0.096c1.201,0.128,2.372,0.349,3.419,0.862l0,0
				c-0.53-0.016-1.056,0.048-1.584,0.094c-0.524,0.057-1.03,0.231-1.539,0.358c-0.989,0.373-1.933,0.858-2.794,1.469
				c-1.743,1.201-3.215,2.753-4.51,4.394l-1.818,2.605c-0.572,0.888-1.024,1.837-1.54,2.746c-0.539,0.896-0.89,1.866-1.308,2.855
				l-0.605,1.47c-0.186,0.492-0.303,0.998-0.457,1.494c-0.267,1.002-0.64,1.972-0.813,2.985c-0.238,1.051-0.361,2.056-0.48,3.06
				l-0.097,1.532c-0.013,0.511,0.006,1.021,0.006,1.527l0.002,0.19l0.001,0.095c-0.005-0.126,0-0.021,0-0.042l0.002,0.024
				l0.006,0.05l0.044,0.395l0.088,0.79l0.088,0.789l0.045,0.394l0.097,0.347l0.369,1.372l0.044,0.171l0.021,0.085l0.011,0.043
				c-0.04-0.127-0.006-0.022-0.013-0.044l0.01,0.022l0.148,0.368c0.101,0.231,0.193,0.525,0.301,0.704
				c0.335,0.686,1,1.482,1.527,1.867c0.208,0.132,0.461,0.343,0.631,0.408c0.15,0.038,0.288,0.085,0.421,0.146
				c0.362,0.066,0.735,0.186,1.158,0.167l0.308,0.012l0.076,0.004l0.038,0.002l0.02,0.002c-0.232,0.009-0.051,0.001-0.096,0.002
				l0.197-0.022l0.789-0.087c0.296-0.015,0.464-0.088,0.64-0.147c0.181-0.058,0.36-0.11,0.542-0.157
				c0.382-0.188,0.787-0.338,1.159-0.564c0.346-0.259,0.775-0.459,1.058-0.744c0.393-0.339,0.858-0.692,1.12-0.996
				c0.31-0.31,0.645-0.58,0.966-0.956c0.323-0.353,0.666-0.689,0.943-1.094l0.428-0.592l0.105-0.148l0.026-0.037
				c0.05-0.078-0.053,0.087-0.038,0.062l0.012-0.022l0.048-0.087l0.189-0.349c0.491-0.93,1.045-1.864,1.484-2.788l1.052-2.727
				l0.064-0.169l0.008-0.021c0.01-0.025-0.053,0.144-0.023,0.061l0.014-0.048l0.026-0.096l0.106-0.383l0.214-0.767l0.426-1.532
				l0.213-0.767l0.127-0.727l0.26-1.442l0.136-0.716l0.069-0.356l0.034-0.179c-0.038,0.216-0.01,0.046-0.017,0.088l0.002-0.025
				l0.005-0.049l0.011-0.099l0.178-1.579l0.189-1.577c0.069-0.537,0.044-0.962,0.074-1.446l0.059-1.411l0.017-0.352l0.012-0.177
				l0.002-0.021c0-0.042,0.01,0.288,0.005,0.136l-0.002-0.049l-0.006-0.1l-0.04-0.793l-0.081-1.585l-0.01-0.198l-0.005-0.1
				l-0.002-0.024c0.018,0.131-0.039-0.33,0.038,0.288l-0.009-0.049l-0.065-0.392l-0.117-0.785l-0.028-0.197l-0.038-0.109
				c-0.026-0.07-0.044-0.144-0.064-0.216l-0.051-0.223l-0.022-0.114l-0.005-0.029l-0.003-0.015c0.044,0.087-0.102-0.214,0.098,0.191
				l-0.042-0.09l-0.164-0.363l-0.02-0.046l0.016,0.039c0.012,0.026,0.025,0.052,0.042,0.076c0.032,0.049,0.073,0.092,0.12,0.126
				c0.174,0.157,0.444,0.273,0.749,0.284c0.038-0.001,0.074-0.006,0.11-0.015c-0.286,0.02,0.424-0.034,0.337-0.027l-0.024,0.002
				l-0.05,0.003l-0.199,0.012c-0.04,0.004-0.192,0.008-0.139,0.011c0.046,0.003,0.093-0.007,0.135-0.022
				c0.26-0.148,0.033-0.055-0.045-0.037c-0.056,0.017-0.131,0.085-0.198,0.124l-0.106,0.067l-0.055,0.034l-0.014,0.008
				c0.034-0.041-0.095,0.104,0.072-0.09l-0.036,0.035l-0.584,0.548c-0.19,0.179-0.406,0.366-0.575,0.539l-0.444,0.495l-0.467,0.501
				l-0.06,0.063c0.029-0.069-0.026,0.026-0.036,0.032l-0.12,0.16l-0.241,0.322c-0.672,0.857-1.225,1.708-1.742,2.52
				c-0.253,0.471-0.517,0.938-0.756,1.413l-0.586,1.39l-0.25,0.592l-0.408-0.178c-0.665-0.29-1.413-0.504-1.992-1.129
				c-0.155-0.21-0.207-0.262-0.322-0.466c-0.104-0.196-0.206-0.396-0.247-0.597c-0.131-0.377-0.094-0.872-0.056-1.163
				c0.165-1.502,1.037-2.719,1.718-3.824c0.16-0.289,0.375-0.562,0.594-0.834l0.635-0.833l0.16-0.209
				c0.037-0.045,0.028-0.048,0.104-0.127l0.086-0.091l0.345-0.364l0.69-0.728c0.471-0.48,1.083-0.914,1.632-1.372
				c0.355-0.243,0.566-0.377,0.896-0.568c0.356-0.17,0.71-0.365,1.096-0.465c0.193-0.055,0.374-0.133,0.588-0.15l0.313-0.043
				l0.156-0.02l0.079-0.01l0.02-0.002c0.046,0.001-0.075-0.007,0.108,0.002l0.031,0.002l0.501,0.022
				c0.185,0.016,0.479,0.099,0.713,0.165c0.465,0.169,0.868,0.393,1.197,0.705l0.255,0.228l0.208,0.241
				c0.112,0.142,0.209,0.222,0.333,0.414c0.532,0.742,0.784,1.317,1.096,2.138c0.19,0.66,0.436,1.215,0.566,1.99l0.227,1.104
				l0.119,1.066l0.225,1.994l0.058,2.126c0.039,0.649-0.021,1.391-0.038,2.093l-0.041,1.069l-0.107,1.05
				c-0.08,0.699-0.122,1.405-0.269,2.103c-0.139,0.713-0.216,1.372-0.415,2.135c-0.169,0.655-0.305,1.283-0.501,1.962
				c-0.226,0.697-0.443,1.407-0.687,2.101c-0.271,0.669-0.53,1.346-0.818,2.014l-0.485,0.986l-0.245,0.493l-0.122,0.247
				l-0.031,0.063l-0.073,0.123l-0.063,0.108c-0.352,0.59-0.631,1.134-1.043,1.76c-0.854,1.293-1.718,2.484-2.751,3.59l-0.385,0.417
				l-0.192,0.209l-0.097,0.104l-0.024,0.025l-0.101,0.091l-0.045,0.043l-0.728,0.69l-0.364,0.345l-0.465,0.383l-0.955,0.765
				c-0.657,0.443-1.271,0.917-1.984,1.295l-0.527,0.292l-0.265,0.146l-0.133,0.072l-0.066,0.036l-0.033,0.018l-0.158,0.067
				l-0.913,0.414c-0.25,0.132-0.747,0.293-1.166,0.436c-0.434,0.146-0.873,0.292-1.29,0.371c-0.833,0.218-1.727,0.317-2.631,0.386
				L342.31,468.194z M342.555,461.273c0.43,0.004,0.87,0.029,1.345-0.043c0.247-0.01,0.445-0.062,0.653-0.101
				c0.221-0.048,0.377-0.036,0.741-0.173l0.952-0.313l0.614-0.255c0.499-0.183,0.979-0.491,1.465-0.732l0.663-0.415l0.342-0.211
				l0.398-0.304l0.799-0.606l0.05-0.038l0.013-0.01c0.021-0.018-0.139,0.122-0.066,0.059l0.021-0.018l0.081-0.072l0.163-0.143
				l0.328-0.286c0.888-0.752,1.694-1.656,2.422-2.512c0.381-0.447,0.787-1.053,1.18-1.571l0.074-0.101l0.019-0.025
				c0.013-0.019-0.073,0.116-0.033,0.054l0.007-0.012l0.03-0.048l0.121-0.19l0.242-0.381l0.49-0.764l0.873-1.615l0.748-1.639
				c0.242-0.581,0.464-1.242,0.697-1.859c0.202-0.51,0.357-1.171,0.544-1.752c0.2-0.595,0.305-1.22,0.447-1.836l0.204-0.928
				l0.14-0.926c0.084-0.629,0.215-1.213,0.253-1.899l0.085-1l0.042-0.499l0.021-0.25l0.011-0.125l0.005-0.063l0.003-0.031
				l0.001-0.016c0.004,0.237,0.001,0.057,0.002,0.105v-2.005l0.005-0.933l-0.078-0.875c-0.008-0.558-0.221-1.27-0.335-1.907
				c-0.113-0.441-0.351-1.124-0.567-1.491c-0.036-0.103-0.174-0.266-0.256-0.396l-0.071-0.103l-0.035-0.052l-0.018-0.025
				c0.014,0.017-0.045-0.058,0.029,0.035l-0.007-0.007l-0.11-0.115c-0.127-0.174-0.324-0.287-0.467-0.371
				c-0.087-0.023-0.103-0.079-0.247-0.111l-0.496-0.073l-0.031-0.005c0.174,0.009,0.042,0.003,0.078,0.005h-0.012l-0.046,0.003
				l-0.093,0.004l-0.186,0.005c-0.123-0.013-0.258,0.036-0.389,0.058c-0.272,0.035-0.516,0.15-0.778,0.23
				c-0.261,0.113-0.637,0.305-0.844,0.419c-0.507,0.354-1.04,0.629-1.552,1.05l-0.76,0.654l-0.38,0.327l-0.095,0.081
				c0.017-0.021-0.042,0.044-0.06,0.063l-0.162,0.174c-0.425,0.481-0.897,0.894-1.268,1.46c-0.188,0.275-0.39,0.543-0.568,0.824
				c-0.08,0.13-0.206,0.303-0.249,0.397l-0.214,0.424c-0.161,0.277-0.233,0.58-0.347,0.87c-0.059,0.303-0.157,0.521-0.166,0.876
				c-0.03,0.368-0.043,0.557,0.044,0.818c0.026,0.131,0.089,0.223,0.134,0.325c0.039,0.091,0.211,0.294,0.25,0.354
				c0.321,0.381,0.873,0.688,1.49,0.724l-0.658,0.414c0.086-0.547,0.165-1.117,0.268-1.669c0.13-0.516,0.234-1.041,0.35-1.563
				c0.328-1.129,0.625-2.219,0.991-3.208l0.131-0.38l0.065-0.189c0.023-0.053-0.005-0.018,0.061-0.143l0.047-0.104l0.388-0.837
				l0.411-0.843c0.139-0.257,0.274-0.467,0.413-0.702l0.417-0.685l0.026-0.042l0.13-0.15l0.09-0.104l0.181-0.206
				c0.128-0.138,0.229-0.271,0.386-0.411c0.359-0.278,0.537-0.54,1.305-0.861c0.163-0.068,0.331-0.132,0.498-0.183l0.248-0.066
				l0.193-0.049l0.049-0.012l0.024-0.006c-0.071,0.002,0.655-0.048,0.386-0.025l0.306,0.021c0.835,0.05,1.594,0.44,2.137,0.966
				c0.134,0.134,0.262,0.276,0.382,0.424l0.173,0.226l0.108,0.155l0.214,0.336l0.052,0.084c0.207,0.421,0.064,0.136,0.114,0.237
				l0.014,0.033l0.026,0.064l0.104,0.263l0.201,0.529l0.189,0.537l0.086,0.267l0.044,0.193l0.172,0.775l0.079,0.39l0.01,0.049
				l0.044,0.362l0.008,0.099l0.017,0.198l0.13,1.582l0.065,0.792l0.009,0.099l0.004,0.05l0.005,0.214l-0.009,0.22l-0.026,0.44
				l-0.11,1.761c-0.054,0.569-0.046,1.21-0.157,1.718l-0.292,1.562l-0.303,1.561l-0.061,0.307l-0.06,0.207l-0.122,0.413
				l-0.243,0.826l-0.498,1.642l-0.254,0.814l-0.301,0.736l-0.603,1.472l-0.302,0.736l-0.15,0.367l-0.11,0.27l-0.099,0.192
				l-1.564,3.061c-0.546,0.945-1.131,1.802-1.694,2.707l-0.213,0.335l-0.054,0.084l-0.079,0.123l-0.032,0.043l-0.128,0.172
				l-0.507,0.692c-0.316,0.475-0.685,0.924-1.055,1.372c-0.341,0.452-0.789,0.896-1.243,1.319c-0.471,0.466-0.878,0.719-1.309,1.045
				c-0.515,0.419-1.069,0.653-1.604,0.978c-0.553,0.284-1.157,0.482-1.748,0.702l-1.001,0.216c-0.338,0.069-0.682,0.137-0.919,0.129
				l-0.794,0.036l-0.198,0.009l-0.146,0.006l-0.03-0.003l-0.061-0.005l-0.121-0.012l-0.483-0.048
				c-0.642-0.03-1.29-0.248-1.939-0.469c-0.346-0.165-0.687-0.344-1.014-0.532c-0.295-0.184-0.436-0.339-0.661-0.51l-0.154-0.125
				l-0.038-0.032l-0.125-0.104l-0.021-0.022l-0.08-0.089l-0.318-0.36c-0.216-0.237-0.421-0.48-0.58-0.753
				c-0.166-0.271-0.352-0.516-0.493-0.81l-0.406-0.889c-0.128-0.294-0.171-0.517-0.261-0.779l-0.118-0.38l-0.036-0.114l-0.01-0.055
				l-0.02-0.108l-0.038-0.218l-0.289-1.734l-0.068-0.431l-0.01-0.397l-0.017-0.795l-0.017-0.795l-0.008-0.397l-0.004-0.166
				l0.008-0.104l0.017-0.206c0.048-0.55,0.079-1.1,0.143-1.645l0.25-1.624c0.227-1.084,0.469-2.166,0.791-3.159
				c0.286-1.056,0.752-2.044,1.116-3.061c0.201-0.5,0.372-1.019,0.599-1.499l0.723-1.415c0.49-0.922,0.916-1.931,1.532-2.817
				c0.584-0.897,1.11-1.836,1.739-2.688l1.939-2.516c1.376-1.639,2.948-3.092,4.697-4.288c0.876-0.604,1.83-1.078,2.827-1.441
				c0.516-0.121,1.026-0.29,1.552-0.34c0.527-0.039,1.055-0.095,1.585-0.073l0,0c-1.048-0.523-2.286-0.498-3.385-0.216l-0.816,0.227
				l-0.774,0.341c-0.524,0.188-0.951,0.544-1.409,0.766c-0.448,0.258-0.964,0.635-1.458,0.914l-1.278,0.924l-1.25,1.053l-1.15,1.102
				l-1.192,1.274l-0.954,1.247l-0.999,1.266c-0.336,0.415-0.619,0.968-0.932,1.445l-0.897,1.496l-0.224,0.375l-0.112,0.188
				l-0.027,0.047l-0.008,0.012c-0.048,0.078,0.059-0.094,0.046-0.072l-0.011,0.023l-0.041,0.092l-0.33,0.735l-0.658,1.461
				c-0.205,0.502-0.452,0.93-0.604,1.521l-0.981,3.215l-0.316,1.571c-0.084,0.524-0.13,1.053-0.199,1.574
				c-0.07,0.525-0.049,0.996-0.085,1.49l-0.018,0.364l0.01,0.432l0.023,0.874c0.048,0.945,0.177,2.004,0.402,2.912
				c0.08,0.516,0.258,0.802,0.357,1.198c0.027,0.149,0.181,0.46,0.289,0.719l0.348,0.802l0.011,0.024
				c-0.029-0.073,0.073,0.183-0.064-0.161l0.005,0.009l0.022,0.034l0.043,0.068l0.086,0.137l0.168,0.274
				c0.113,0.179,0.206,0.381,0.346,0.521l0.371,0.463c0.124,0.179,0.22,0.188,0.313,0.298c0.046,0.111,0.639,0.536,1.092,0.868
				l0.088,0.064l0.011,0.009c-0.088-0.068,0.212,0.162-0.193-0.149l0.015,0.006l0.028,0.012l0.114,0.048l0.219,0.106
				c0.141,0.078,0.28,0.157,0.439,0.187c0.15,0.05,0.297,0.106,0.442,0.17c0.116,0.009,0.215,0.041,0.319,0.081
				c0.057,0.02,0.089,0.048,0.168,0.071l0.434,0.049l0.867,0.097L342.555,461.273z"/>
		</g>
		<path stroke="#000000" stroke-width="6" stroke-miterlimit="10" d="M393.291,466.37c-0.705,0-1.529-0.439-2.473-1.319
			c-0.944-0.881-1.928-2.033-2.952-3.456c-1.024-1.424-2.04-2.983-3.048-4.681c-1.008-1.695-1.937-3.391-2.784-5.088
			c-0.848-1.695-1.56-3.216-2.136-4.56c-0.896,3.137-1.76,6.216-2.592,9.24c-0.833,3.023-1.616,5.768-2.353,8.231
			c-0.8,0-1.528-0.224-2.184-0.672c-0.656-0.448-0.984-1.024-0.984-1.728c0-0.353,0.08-0.776,0.24-1.272s0.304-0.951,0.433-1.368
			c0.799-2.527,1.584-4.911,2.352-7.151s1.52-4.399,2.256-6.48c0.736-2.08,1.496-4.144,2.28-6.192
			c0.783-2.047,1.607-4.111,2.472-6.191s1.792-4.24,2.784-6.48c-1.344,0.225-2.513,0.553-3.504,0.984
			c-0.992,0.432-1.793,0.832-2.4,1.2c-0.608,0.368-1.024,0.552-1.248,0.552c-0.128,0-0.312-0.072-0.552-0.216
			c-0.24-0.145-0.456-0.319-0.647-0.528c-0.192-0.208-0.288-0.392-0.288-0.552c0.831-0.352,1.808-0.735,2.928-1.152
			c1.12-0.415,2.352-0.768,3.696-1.056c1.344-0.288,2.735-0.432,4.176-0.432c1.375,0,2.775,0.168,4.2,0.504
			c1.423,0.336,2.735,0.863,3.936,1.584c1.2,0.72,2.168,1.648,2.904,2.783c0.735,1.137,1.104,2.505,1.104,4.104
			c0,1.568-0.359,2.921-1.08,4.056c-0.72,1.137-1.664,2.088-2.832,2.856c-1.168,0.768-2.44,1.385-3.815,1.848
			c-1.376,0.465-2.736,0.816-4.08,1.057c-1.344,0.239-2.561,0.4-3.648,0.479c-1.088,0.08-1.904,0.12-2.447,0.12
			c0.991,1.696,1.936,3.344,2.832,4.944c0.896,1.601,1.872,3.191,2.928,4.775s2.304,3.177,3.744,4.776
			c1.439,1.6,3.184,3.231,5.231,4.896c-0.191,0.416-0.536,0.784-1.031,1.104C394.21,466.21,393.738,466.37,393.291,466.37z
			 M380.667,444.627c1.728-0.097,3.479-0.376,5.256-0.841c1.775-0.463,3.399-1.119,4.872-1.968c1.471-0.848,2.655-1.92,3.552-3.216
			c0.896-1.296,1.344-2.84,1.344-4.632c0-1.76-0.416-3.145-1.248-4.152s-1.904-1.728-3.216-2.16
			c-1.313-0.432-2.688-0.647-4.128-0.647c-1.088,2.208-2.177,4.856-3.264,7.943C382.746,438.043,381.69,441.267,380.667,444.627z"/>
	</g>
	<path display="inline" fill="none" stroke="#000000" stroke-width="5" stroke-miterlimit="10" d="M344.954,326.935
		c-3.174-13.145-16.234-24.808-46.771-25.464v-0.007c-0.037,0.001-0.073,0.003-0.11,0.004c-0.037-0.001-0.073-0.003-0.11-0.004
		v0.007c-30.536,0.656-43.598,12.319-46.771,25.464c-3.49,14.46,10.411,36.481,46.771,36.633v0.005c0.037,0,0.073-0.002,0.11-0.002
		s0.073,0.002,0.11,0.002v-0.005C334.544,363.416,348.445,341.395,344.954,326.935z"/>
</g>
<g id="圖層_5">
	<g id="XMLID_1_">
		<g>
			<path fill="#040000" d="M344.75,256.48c4.77,0,8.68,5.63,9.13,12.86c-0.05,0.07-0.1,0.13-0.16,0.19
				c-9.01,2.38-14.989,0.68-18.04-0.7c0.13-1.48,0.4-2.89,0.79-4.19c0.181-0.58,0.38-1.14,0.601-1.68
				c0.08-0.18,0.149-0.35,0.229-0.53c0.08-0.17,0.16-0.34,0.25-0.51c0.25-0.52,0.54-1,0.84-1.46c0.101-0.14,0.2-0.28,0.301-0.42
				c0.1-0.14,0.199-0.28,0.31-0.41c0.41-0.52,0.86-0.99,1.33-1.4h0.01C341.65,257.11,343.15,256.48,344.75,256.48z"/>
			<path fill="#040000" d="M353.72,269.53c-6.26,7.9-11.95,10.16-18.06-0.51c0.01-0.06,0.01-0.13,0.02-0.19
				C338.73,270.21,344.71,271.91,353.72,269.53z"/>
			<path fill="#040000" d="M344.78,256.44c4.76,0,8.67,5.63,9.14,12.85c-0.01,0.02-0.03,0.03-0.04,0.05
				c-0.45-7.23-4.36-12.86-9.13-12.86c-1.6,0-3.1,0.63-4.41,1.75C341.65,257.09,343.17,256.44,344.78,256.44z"/>
			<path fill="#432C1E" d="M250.58,269.03c6.17,10.77,11.92,8.35,18.26,0.26c0,0.01,0,0.03,0,0.04c0.03,0.47,0.04,0.95,0.04,1.43
				c0,7.89-4.11,14.28-9.18,14.28c-5.07,0-9.19-6.39-9.19-14.28c0-0.58,0.03-1.14,0.07-1.7
				C250.58,269.05,250.58,269.04,250.58,269.03z"/>
			<path fill="#040000" d="M250.58,269.02c0.03-0.43,0.08-0.85,0.14-1.27c0.9-6.44,4.57-11.27,8.98-11.27
				c4.31,0,7.93,4.62,8.92,10.86c0.1,0.64,0.18,1.29,0.22,1.95c-6.34,8.09-12.09,10.51-18.26-0.26V269.02z"/>
			<path fill="#CDA57C" d="M299.49,354.9l2.62,0.05l2.5-0.01v-0.04c24.31-0.761,36.01-11.061,40.88-17.28
				c5.46-6.96,7.58-15.12,5.819-22.4c-2.329-9.67-11.529-25.87-46.8-27.3l-0.01-0.15l-2.49,0.07l-2.62-0.06v0.14
				c-35.18,1.47-44.37,17.64-46.7,27.3c-1.76,7.28,0.37,15.44,5.82,22.41C263.39,343.85,275.11,354.16,299.49,354.9z M250.72,267.75
				c-0.06,0.42-0.11,0.84-0.14,1.27v0.01c0,0.01,0,0.02,0,0.03c-0.04,0.56-0.07,1.12-0.07,1.7c0,7.89,4.12,14.28,9.19,14.28
				c5.07,0,9.18-6.39,9.18-14.28c0-0.48-0.01-0.96-0.04-1.43c0-0.01,0-0.03,0-0.04c-0.04-0.66-0.12-1.31-0.22-1.95
				c-0.98-6.26-4.6-10.9-8.92-10.9C255.28,256.44,251.6,261.29,250.72,267.75z M392.23,199.3c-1.16,0.75-1.5,2.3-0.75,3.46
				l23.6,36.58c0.4,0.62,1.04,1.03,1.77,1.13c0.11,0.01,0.221,0.02,0.33,0.02c0.61,0,1.2-0.22,1.66-0.63
				c16.47-14.63,22.561-33.82,15.17-47.76c-3.88-7.34-9.39-12.07-16.37-14.08c-8.43-2.42-18.6-0.57-28.64,5.22
				c-1.2,0.69-1.61,2.22-0.92,3.42c0.32,0.55,0.82,0.92,1.38,1.11c0.66,5.39,1.72,8.6,2.86,11.49
				C392.29,199.27,392.26,199.28,392.23,199.3z M335.56,270.76c0,7.89,4.11,14.28,9.19,14.28c1.6,0,3.11-0.64,4.41-1.76
				c0.25-0.21,0.49-0.44,0.72-0.68c0.74-0.77,1.39-1.7,1.95-2.75c1.33-2.48,2.13-5.66,2.13-9.13c0-0.48-0.01-0.96-0.04-1.43
				c-0.47-7.22-4.38-12.85-9.14-12.85c-1.61,0-3.13,0.65-4.44,1.79h-0.01c-0.47,0.4-0.92,0.87-1.33,1.4
				c-0.11,0.13-0.21,0.27-0.31,0.41c-0.101,0.14-0.2,0.28-0.301,0.42c-0.3,0.46-0.59,0.94-0.84,1.46c-0.09,0.17-0.17,0.34-0.25,0.51
				c-0.08,0.18-0.16,0.35-0.229,0.53c-0.23,0.54-0.431,1.09-0.601,1.68c-0.41,1.3-0.68,2.7-0.81,4.18
				C335.6,269.46,335.56,270.1,335.56,270.76z M170.3,192.1c-7.39,13.94-1.29,33.13,15.17,47.76c0.46,0.41,1.05,0.63,1.66,0.63
				c0.11,0,0.23-0.01,0.34-0.02c0.72-0.1,1.37-0.51,1.76-1.13l23.6-36.58c0.75-1.16,0.42-2.71-0.74-3.46
				c-0.11-0.07-0.22-0.12-0.34-0.17c1.22-3.01,2.43-6.06,3.2-11.39c0.52-0.2,0.98-0.56,1.28-1.08c0.69-1.2,0.28-2.73-0.91-3.42
				c-10.04-5.79-20.22-7.64-28.65-5.22C179.7,180.03,174.19,184.76,170.3,192.1z M356.07,363.31l-0.32-1.22
				c-14.69,3.79-35.81,9.891-53.52,17.521c-16.911-7.351-31.721-13.15-48.65-17.521l-0.34,1.311c-0.15-0.04-0.3-0.08-0.46-0.12
				l-3.01,0.109c0.08-1.27,0.14-2.62,0.16-4.09c0.08-5.95-1.85-16.81-6.24-21.2c-5.39-5.39-24.05-12.229-37.35-12.229
				c-4.05,0-8.84,0.72-13.67,1.92c-0.75-1.96-1.23-3.43-1.5-4.3l2.84-1.71c-0.12-0.21-12.26-21.09-8.4-53.19l0.33-2.81l-2.54-1.25
				c-4.51-2.23-8.67-4.86-12.48-7.81v-1.77v-29.68l-0.05-0.49c-1.37-6.76-5.03-11.71-8.36-14.98h1.53v-43.41
				c13.99-10.79,35.11-14.69,52.43-3.8l2.75-4.36l5.55,4.91v47.39c0,0,5.98,7.51,25.08,13.1c11.97,3.49,29.11,6.24,53.16,5.91
				c62.431-0.86,76.23-19.01,76.23-19.01v-47.51l6.05-4.5l2.55,4.07c22.21-13.96,50.67-3.63,62.32,14.37
				c8.22,12.7,10.439,30.01,5.95,46.32c-4.91,17.82-17.41,32.46-35.2,41.25l-2.54,1.25l0.34,2.81c3.85,32.101-8.29,52.98-8.41,53.18
				l3.07,1.841l-1.97,2.909c-3.4-0.619-6.75-0.989-9.811-0.989c-11.59,0-29.27,5.89-36.39,12.12c-4.42,3.859-7.11,11.81-7.19,21.25
				c-0.01,1.56,0.04,3.05,0.16,4.46l-1.979-0.08C356.15,363.29,356.11,363.3,356.07,363.31z"/>
			<path fill="#040000" d="M259.7,256.44c4.32,0,7.94,4.64,8.92,10.9c-0.99-6.24-4.61-10.86-8.92-10.86
				c-4.41,0-8.08,4.83-8.98,11.27C251.6,261.29,255.28,256.44,259.7,256.44z"/>
			<path fill="#432C1E" d="M344.78,285c-5.07,0-9.19-6.39-9.19-14.28c0-0.58,0.03-1.14,0.07-1.7c6.109,10.67,11.8,8.41,18.06,0.51
				c0.061-0.01,0.11-0.02,0.17-0.04c0.03,0.42,0.04,0.84,0.04,1.27c0,3.45-0.79,6.62-2.1,9.09c-0.561,1.05-1.21,1.98-1.95,2.75
				c-0.229,0.24-0.47,0.47-0.72,0.68C347.86,284.38,346.36,285,344.78,285z"/>
			<path fill="#6D4B42" d="M479.84,383.84V522.7c0,1.56-0.899,2.97-2.31,3.63c-1.41,0.65-3.07,0.43-4.261-0.57
				c-33.779-28.43-111.63-14.17-169.67,11.13c-0.51,0.221-1.05,0.33-1.6,0.33c-0.54,0-1.09-0.109-1.6-0.33
				c-58.82-25.64-133.01-39.02-166.141-11.13c-1.19,1.01-2.86,1.221-4.27,0.57c-1.41-0.66-2.31-2.07-2.31-3.63V382.17l8-4.87v137.54
				c39.81-25.2,112.91-8.95,166.32,14.021c0.61-0.261,1.23-0.521,1.84-0.78c29.23-12.35,61.88-21.24,90.17-24.51
				c33.23-3.851,59.9,0.06,77.83,11.3v-9.33V377.3L479.84,383.84z"/>
			<path fill="#FFFFFF" d="M347.48,450.43c-0.421,0.021-0.79-0.1-1.16-0.16c-0.13-0.069-0.271-0.109-0.42-0.149
				c-0.03-0.01-0.07-0.05-0.11-0.07c-0.16-0.09-0.35-0.229-0.521-0.34c-0.77-0.02-1.189-1.18-1.529-1.87
				c-0.101-0.18-0.2-0.47-0.3-0.7l-0.15-0.38v-0.01c0-0.01,0-0.01,0-0.01l-0.021-0.08l-0.05-0.17l-0.37-1.37l-0.09-0.34l-0.05-0.4
				l-0.09-0.79l-0.08-0.79l-0.05-0.39v-0.05l-0.01-0.03v-0.021v-0.029v-0.19c0-0.51-0.021-1.02-0.011-1.53l0.101-1.529
				c0.12-1,0.239-2.011,0.479-3.061c0.17-1.01,0.55-1.979,0.811-2.979c0.159-0.5,0.279-1.01,0.46-1.5l0.609-1.471
				c0.41-0.989,0.771-1.96,1.301-2.85c0.52-0.91,0.97-1.86,1.539-2.75l1.82-2.6c1.3-1.65,2.771-3.2,4.51-4.4
				c0.86-0.61,1.811-1.09,2.801-1.47c0.51-0.12,1.01-0.3,1.54-0.36c0.43-0.03,0.88-0.09,1.319-0.09c0.021,0,0.04,0,0.07,0
				s0.07,0,0.1,0v1.09c-0.02,0.01-0.029,0.01-0.05,0.021c-0.02,0.01-0.04,0.02-0.07,0.029c-0.35,0.101-0.68,0.271-1,0.431
				c-0.329,0.189-0.54,0.319-0.899,0.569c-0.55,0.45-1.16,0.891-1.63,1.37l-0.69,0.73l-0.35,0.359l-0.08,0.091
				c-0.08,0.079-0.07,0.079-0.11,0.13l-0.16,0.21l-0.63,0.83c-0.22,0.27-0.43,0.54-0.59,0.83c-0.689,1.109-1.56,2.329-1.72,3.829
				c-0.04,0.29-0.08,0.79,0.05,1.16c0.04,0.2,0.15,0.4,0.25,0.601c0.12,0.2,0.17,0.25,0.32,0.46c0.58,0.63,1.33,0.84,1.989,1.13
				l0.41,0.18l0.25-0.59l0.59-1.39c0.24-0.48,0.5-0.94,0.75-1.41c0.521-0.82,1.07-1.67,1.75-2.521l0.24-0.319l0.12-0.17
				c0.01,0,0.021-0.021,0.03-0.03l0.06-0.061l0.471-0.5l0.439-0.5c0.17-0.17,0.39-0.359,0.58-0.54l0.18-0.159l0.03,0.199l0.12,0.78
				l0.04,0.25v0.03l0.01,0.2l0.08,1.58l0.04,0.79v0.02v0.01v0.011l-0.01,0.17l-0.021,0.359l-0.06,1.41c-0.03,0.48,0,0.91-0.07,1.44
				l-0.189,1.58l-0.181,1.579l-0.01,0.101v0.04v0.01v0.021c0,0.01,0,0.02,0,0.02l-0.02,0.07l-0.07,0.359l-0.14,0.721l-0.261,1.439
				l-0.12,0.73l-0.22,0.76l-0.42,1.53l-0.22,0.77l-0.101,0.38l-0.029,0.101v0.01v0.01c-0.011,0.021-0.021,0.05-0.021,0.04
				l-0.04,0.12l-1.05,2.72c-0.44,0.931-1,1.86-1.49,2.79l-0.189,0.351l-0.011,0.029c0.011,0-0.01,0.03-0.029,0.051
				c-0.011,0.02-0.021,0.04-0.021,0.029l-0.09,0.12l-0.43,0.601c-0.28,0.399-0.62,0.739-0.94,1.09c-0.319,0.37-0.66,0.649-0.97,0.95
				c-0.09,0.109-0.21,0.229-0.34,0.34c-0.24,0.22-0.521,0.439-0.78,0.66c-0.28,0.289-0.71,0.489-1.06,0.75
				c-0.37,0.22-0.771,0.369-1.15,0.56c-0.19,0.05-0.37,0.1-0.55,0.16c-0.17,0.06-0.34,0.13-0.641,0.14l-0.79,0.09l-0.149,0.021
				l-0.08-0.01L347.48,450.43z"/>
			<path fill="#1A3060" d="M343.44,447.14c0.1,0.23,0.199,0.521,0.3,0.7c0.34,0.69,0.76,1.851,1.529,1.87
				c0.171,0.11,0.36,0.25,0.521,0.34c0.04,0.021,0.08,0.061,0.11,0.07c0.149,0.04,0.29,0.08,0.42,0.149
				c0.37,0.061,0.739,0.181,1.16,0.16l0.31,0.011l0.08,0.01l0.149-0.021l0.79-0.09c0.301-0.01,0.471-0.08,0.641-0.14
				c0.18-0.061,0.359-0.11,0.55-0.16c0.38-0.19,0.78-0.34,1.15-0.56c0.35-0.261,0.779-0.461,1.06-0.75
				c0.26-0.221,0.54-0.44,0.78-0.66c0.13-0.11,0.25-0.23,0.34-0.34c0.31-0.301,0.65-0.58,0.97-0.95c0.32-0.351,0.66-0.69,0.94-1.09
				l0.43-0.601l0.09-0.12c0,0.011,0.01-0.01,0.021-0.029c0.02-0.021,0.04-0.051,0.029-0.051l0.011-0.029l0.189-0.351
				c0.49-0.93,1.05-1.859,1.49-2.79l1.05-2.72l0.04-0.12c0,0.01,0.01-0.02,0.021-0.04v-0.01v-0.01l0.029-0.101l0.101-0.38l0.22-0.77
				l0.42-1.53l0.22-0.76l0.12-0.73l0.261-1.439l0.14-0.721l0.07-0.359l0.02-0.07c0,0,0-0.01,0-0.02v-0.021v-0.01v-0.04l0.01-0.101
				l0.181-1.579l0.189-1.58c0.07-0.53,0.04-0.96,0.07-1.44l0.06-1.41l0.021-0.359l0.01-0.17c0.01,0.029,0.01,0.069,0.01,0.109v-0.05
				l-0.01-0.06v-0.011v-0.01v-0.02l-0.04-0.79l-0.08-1.58l-0.01-0.2v-0.03l-0.04-0.25l-0.12-0.78l-0.03-0.199l-0.18,0.159
				c-0.19,0.181-0.41,0.37-0.58,0.54l-0.439,0.5l-0.471,0.5l-0.06,0.061c-0.01,0.01-0.021,0.03-0.03,0.03l-0.12,0.17l-0.24,0.319
				c-0.68,0.851-1.229,1.7-1.75,2.521c-0.25,0.47-0.51,0.93-0.75,1.41l-0.59,1.39l-0.25,0.59l-0.41-0.18
				c-0.659-0.29-1.409-0.5-1.989-1.13c-0.15-0.21-0.2-0.26-0.32-0.46c-0.1-0.2-0.21-0.4-0.25-0.601c-0.13-0.37-0.09-0.87-0.05-1.16
				c0.16-1.5,1.03-2.72,1.72-3.829c0.16-0.29,0.37-0.561,0.59-0.83l0.63-0.83l0.16-0.21c0.04-0.051,0.03-0.051,0.11-0.13l0.08-0.091
				l0.35-0.359l0.69-0.73c0.47-0.479,1.08-0.92,1.63-1.37c0.359-0.25,0.57-0.38,0.899-0.569c0.32-0.16,0.65-0.33,1-0.431
				c0.03-0.01,0.051-0.02,0.07-0.029c0.021-0.011,0.03-0.011,0.05-0.021c0.13-0.05,0.261-0.1,0.391-0.14l0.239-0.061l0.2-0.05
				l0.05-0.02h0.021c-0.05,0,0.3-0.03,0.42-0.03l0.27,0.02c0.841,0.051,1.601,0.44,2.141,0.971c0.06,0.06,0.12,0.14,0.189,0.21
				l0.011,0.01l0.08,0.1l0.119,0.12l0.011,0.021c0,0,0,0,0,0.01c0.12,0.14,0.21,0.22,0.34,0.41c0.53,0.74,0.78,1.32,1.09,2.14
				c0.19,0.66,0.44,1.21,0.57,1.99l0.22,1.1l0.12,1.07l0.229,1.99l0.061,2.13c0.03,0.65-0.03,1.39-0.04,2.09l-0.04,1.07l-0.11,1.05
				c-0.08,0.7-0.12,1.4-0.27,2.1c-0.141,0.71-0.221,1.37-0.41,2.141c-0.17,0.649-0.311,1.279-0.51,1.96
				c-0.221,0.7-0.44,1.41-0.681,2.1c-0.27,0.67-0.529,1.34-0.819,2.01l-0.49,0.99l-0.24,0.49l-0.12,0.25l-0.029,0.06l-0.08,0.12
				l-0.061,0.11c-0.35,0.59-0.63,1.14-1.04,1.76c-0.859,1.3-1.72,2.49-2.75,3.59l-0.39,0.42l-0.19,0.21l-0.1,0.101l-0.021,0.03
				l-0.1,0.09l-0.05,0.04l-0.73,0.689l-0.359,0.351l-0.46,0.38l-0.96,0.77c-0.66,0.44-1.271,0.91-1.98,1.29l-0.53,0.29l-0.27,0.15
				l-0.13,0.069l-0.07,0.04l-0.03,0.011l-0.159,0.069l-0.91,0.42c-0.25,0.13-0.75,0.29-1.17,0.431c-0.431,0.149-0.87,0.29-1.29,0.37
				c-0.83,0.22-1.721,0.319-2.63,0.39l-0.24-0.01l-0.87-0.021l-0.44-0.02l-0.68-0.11c-0.47-0.08-0.94-0.17-1.39-0.3l-1.181-0.47
				c-0.39-0.15-0.75-0.37-1.109-0.601l-0.53-0.34l-0.26-0.18l-0.061-0.04l-0.029-0.021l-0.221-0.17l-0.01-0.01l-0.08-0.07
				c-0.43-0.42-0.79-0.68-1.47-1.489c-0.28-0.33-0.63-0.711-0.811-1.03l-0.609-0.98c-0.21-0.319-0.351-0.66-0.5-1l-0.23-0.5
				l-0.109-0.25l-0.061-0.13l-0.03-0.06l-0.079-0.21v-0.021l-0.261-0.84c-0.08-0.29-0.17-0.51-0.25-0.93
				c-0.14-0.74-0.35-1.57-0.37-2.221c-0.13-1.38-0.119-2.659-0.01-4.029l0.101-0.87l0.04-0.44l0.09-0.5
				c0.12-0.66,0.21-1.35,0.37-1.97c0.17-0.61,0.31-1.24,0.489-1.84l0.601-1.8l0.02-0.051l0.05-0.14l0.011-0.01l0.01-0.021l0.04-0.1
				l0.09-0.2l0.18-0.399l0.351-0.801l0.71-1.6c0.2-0.521,0.569-1.09,0.87-1.63l0.93-1.65l0.46-0.819l0.06-0.101l0.08-0.13l0.03-0.05
				l0.13-0.17l0.25-0.36l1.021-1.42c0.35-0.47,0.62-0.95,1.04-1.42l1.229-1.42l1.28-1.43l1.28-1.19c0.479-0.4,0.989-0.79,1.479-1.18
				c0.521-0.36,1.04-0.69,1.561-1.021c0.569-0.31,1.029-0.569,1.689-0.899c0.561-0.21,1.061-0.42,1.7-0.57
				c0.65-0.13,1.29-0.271,1.92-0.26l0.93-0.03l0.92,0.1c0.891,0.091,1.75,0.24,2.561,0.521l0.08,0.03l0.779,0.31
				c-0.029,0-0.06,0-0.09,0c-0.029,0-0.069,0-0.1,0s-0.05,0-0.07,0c-0.439,0-0.89,0.06-1.319,0.09c-0.53,0.061-1.03,0.24-1.54,0.36
				c-0.99,0.38-1.94,0.859-2.801,1.47c-1.739,1.2-3.21,2.75-4.51,4.4l-1.82,2.6c-0.569,0.89-1.02,1.84-1.539,2.75
				c-0.53,0.89-0.891,1.86-1.301,2.85l-0.609,1.471c-0.181,0.49-0.301,1-0.46,1.5c-0.261,1-0.641,1.97-0.811,2.979
				c-0.24,1.05-0.359,2.061-0.479,3.061l-0.101,1.529c-0.01,0.511,0.011,1.021,0.011,1.53v0.19v0.029v0.021l0.01,0.03v0.05
				l0.05,0.39l0.08,0.79l0.09,0.79l0.05,0.4l0.09,0.34l0.37,1.37l0.05,0.17l0.021,0.08c0,0,0,0,0,0.01v0.01L343.44,447.14z"/>
			<path fill="#432C1E" d="M335.59,270.72c0,7.89,4.12,14.28,9.19,14.28c1.58,0,3.08-0.62,4.38-1.72c-1.3,1.12-2.811,1.76-4.41,1.76
				c-5.08,0-9.19-6.39-9.19-14.28c0-0.66,0.04-1.3,0.101-1.94c0.01,0,0.01,0.01,0.02,0.01c-0.01,0.06-0.01,0.13-0.02,0.19
				C335.62,269.58,335.59,270.14,335.59,270.72z"/>
			<path fill="#948784" d="M469.43,377.3v128.24c0,0.9-0.479,1.72-1.26,2.17c-0.77,0.44-1.729,0.44-2.5-0.01
				c-14.86-8.66-41.08-10.92-73.83-6.37c-29.28,4.07-61.63,13.18-88.75,25c-0.32,0.14-0.66,0.21-1,0.21s-0.68-0.07-1-0.21
				c-53.03-23.11-126.86-37.49-159.23-18.63c-0.78,0.45-1.73,0.45-2.51,0.01c-0.78-0.45-1.25-1.27-1.25-2.17l-0.17-129.67l5.17-4.08
				V501.4c3.63-1.721,7.56-3.091,11.68-4.16c18.92-4.88,42.02-3.41,59.94-0.86c28.18,4.03,59.96,13.101,87.37,24.94
				c48.58-20.971,113.271-33.71,151.15-23.87c4.05,1.06,7.8,2.37,11.189,3.96V371.79L469.43,377.3z"/>
			<path fill="#432C1E" d="M456.87,172.61c9.439,14.58,12.04,34.32,6.95,52.8c-5.28,19.19-18.33,35.08-36.87,45.01
				c3.21,33.37-9.24,54.561-9.79,55.47l-3.79-2.279l-3.07-1.841c0.12-0.199,12.26-21.079,8.41-53.18l-0.34-2.81l2.54-1.25
				c17.79-8.79,30.29-23.43,35.2-41.25c4.489-16.31,2.27-33.62-5.95-46.32c-11.65-18-40.11-28.33-62.32-14.37l-2.55-4.07l-1.7-2.7
				C409.73,139.38,443.19,151.48,456.87,172.61z"/>
			<path fill="#948784" d="M462,368.72v129.71l-3.27-1.06c-1.65-0.54-3.341-1.03-5.08-1.48C416.02,486,357.76,494.63,303,518.5
				l-1,0.44l-1-0.44c-54.44-23.73-109.84-32.2-146.59-22.7c-1.86,0.47-3.67,1-5.43,1.57l-3.27,1.06V368.72l12.2-3.149l0.32,1.22
				l0.93,3.62l-8.45,2.18V491.61c38.04-10.91,94.15-2.841,151.29,21.87c56.43-24.381,116.6-32.811,155-21.87V372.59l-8.45-2.18
				l0.92-3.54l0.33-1.3L462,368.72z"/>
			<polygon fill="#040000" points="460.24,112.75 301.34,170.18 205.63,135.31 335.77,72.84 			"/>
			<path fill="#FFFFFF" d="M359.24,415.19l-0.08-0.03c-0.811-0.28-1.67-0.43-2.561-0.521l-0.92-0.1l-0.93,0.03
				c-0.63-0.011-1.27,0.13-1.92,0.26c-0.64,0.15-1.14,0.36-1.7,0.57c-0.66,0.33-1.12,0.59-1.689,0.899
				c-0.521,0.33-1.04,0.66-1.561,1.021c-0.49,0.39-1,0.779-1.479,1.18l-1.28,1.19l-1.28,1.43l-1.229,1.42
				c-0.42,0.47-0.69,0.95-1.04,1.42l-1.021,1.42l-0.25,0.36l-0.13,0.17l-0.03,0.05l-0.08,0.13L340,426.19l-0.46,0.819l-0.93,1.65
				c-0.301,0.54-0.67,1.109-0.87,1.63l-0.71,1.6l-0.351,0.801l-0.18,0.399l-0.09,0.2l-0.04,0.1l-0.01,0.021l-0.011,0.01l-0.05,0.14
				l-0.02,0.051l-0.601,1.8c-0.18,0.6-0.319,1.229-0.489,1.84c-0.16,0.62-0.25,1.31-0.37,1.97l-0.09,0.5l-0.04,0.44l-0.101,0.87
				c-0.109,1.37-0.12,2.649,0.01,4.029c0.021,0.65,0.23,1.48,0.37,2.221c0.08,0.42,0.17,0.64,0.25,0.93l0.261,0.84v0.021l0.079,0.21
				l0.03,0.06l0.061,0.13l0.109,0.25l0.23,0.5c0.149,0.34,0.29,0.681,0.5,1l0.609,0.98c0.181,0.319,0.53,0.7,0.811,1.03
				c0.68,0.81,1.04,1.069,1.47,1.489l0.08,0.07l0.01,0.01l0.221,0.17l0.029,0.021l0.061,0.04l0.26,0.18l0.53,0.34
				c0.359,0.23,0.72,0.45,1.109,0.601l1.181,0.47c0.449,0.13,0.92,0.22,1.39,0.3l0.68,0.11l0.44,0.02l0.87,0.021l0.24,0.01
				c0.909-0.07,1.8-0.17,2.63-0.39c0.42-0.08,0.859-0.221,1.29-0.37c0.42-0.141,0.92-0.301,1.17-0.431l0.91-0.42l0.159-0.069
				l0.03-0.011l0.07-0.04l0.13-0.069l0.27-0.15l0.53-0.29c0.71-0.38,1.32-0.85,1.98-1.29l0.96-0.77l0.46-0.38l0.359-0.351
				l0.73-0.689l0.05-0.04l0.1-0.09l0.021-0.03l0.1-0.101l0.19-0.21l0.39-0.42c1.03-1.1,1.891-2.29,2.75-3.59
				c0.41-0.62,0.69-1.17,1.04-1.76l0.061-0.11l0.08-0.12l0.029-0.06l0.12-0.25l0.24-0.49l0.49-0.99c0.29-0.67,0.55-1.34,0.819-2.01
				c0.24-0.689,0.46-1.399,0.681-2.1c0.199-0.681,0.34-1.311,0.51-1.96c0.189-0.771,0.27-1.431,0.41-2.141
				c0.149-0.699,0.189-1.399,0.27-2.1l0.11-1.05l0.04-1.07c0.01-0.7,0.07-1.439,0.04-2.09l-0.061-2.13l-0.229-1.99l-0.12-1.07
				l-0.22-1.1c-0.13-0.78-0.38-1.33-0.57-1.99c-0.31-0.819-0.56-1.399-1.09-2.14c-0.13-0.19-0.22-0.271-0.34-0.41
				c0-0.01,0-0.01,0-0.01l-0.011-0.021l-0.119-0.12l-0.08-0.1l-0.011-0.01c-0.069-0.07-0.13-0.15-0.189-0.21
				c-0.54-0.53-1.3-0.92-2.141-0.971l-0.27-0.02c-0.12,0-0.47,0.03-0.42,0.03h-0.021l-0.05,0.02l-0.2,0.05l-0.239,0.061
				c-0.13,0.04-0.261,0.09-0.391,0.14v-1.09c0.03,0,0.061,0,0.09,0L359.24,415.19z M457,372.59V491.61
				c-38.4-10.94-98.57-2.511-155,21.87c-57.14-24.711-113.25-32.78-151.29-21.87V372.59l8.45-2.18l-0.93-3.62l0.13-0.04l4.92-0.18
				c0.84,5.109,2.72,9.1,5.68,12.08c4.03,4.08,9.9,6.06,17.92,6.06c1.82,0,3.8-0.1,5.88-0.31c1.35,0.33,2.72,0.819,4.17,1.34
				c2.9,1.04,6.2,2.22,9.92,2.22c5.42,0,10.33-1.83,14.66-3.44c1.24-0.46,2.41-0.899,3.54-1.279c3.12-1.021,6.03-1.471,8.63-1.84
				c0.14-0.021,0.29-0.04,0.43-0.061c8.89-1.25,14.62-2.89,15.66-17.95l3.01-0.109c0.16,0.04,0.31,0.08,0.46,0.12l-0.91,3.54
				c16.87,4.35,31.66,10.18,48.67,17.59c0.32,0.14,0.66,0.21,1,0.21h0.44c0.35,0,0.689-0.07,1-0.21
				c17.569-7.66,38.819-13.79,53.56-17.59l-0.93-3.631c0.04-0.01,0.08-0.02,0.12-0.029l1.979,0.08c0.561,6.51,2.55,11.43,6.03,14.96
				c2.1,2.109,4.689,3.649,7.81,4.649c2.9,0.931,6.25,1.4,10.12,1.4c1.82,0,3.79-0.101,5.88-0.311c1.351,0.33,2.721,0.82,4.17,1.341
				c2.9,1.04,6.19,2.22,9.92,2.22c5.42,0,10.32-1.83,14.65-3.44c1.25-0.46,2.42-0.899,3.54-1.279c3.3-1.08,6.36-1.521,9.07-1.9
				c8.14-1.15,13.63-2.61,15.29-14.41l4.34,0.16l0.479,0.12l-0.92,3.54L457,372.59z M404.29,429.52c1.02-1.619,1.55-3.529,1.55-5.67
				c0-2.18-0.54-4.109-1.59-5.729c-0.99-1.521-2.29-2.78-3.88-3.73c-1.46-0.87-3.07-1.52-4.79-1.93c-3.33-0.79-6.65-0.74-9.69-0.08
				c-1.479,0.311-2.859,0.71-4.12,1.17c-1.18,0.44-2.18,0.84-3.05,1.2l-1.83,0.78v1.989c0,0.641,0.19,1.62,1.08,2.57
				c0.38,0.42,0.82,0.78,1.32,1.08c1.25,0.75,2.32,0.86,3.66,0.3c-0.86,2.08-1.7,4.17-2.48,6.21c-0.779,2.051-1.56,4.16-2.3,6.261
				c-0.74,2.09-1.5,4.26-2.27,6.51c-0.79,2.3-1.591,4.729-2.381,7.24c-0.119,0.399-0.26,0.85-0.42,1.329
				c-0.26,0.801-0.39,1.521-0.39,2.19c0,1.7,0.82,3.2,2.3,4.21c1.16,0.79,2.46,1.19,3.87,1.19h2.24l0.64-2.141
				c0.721-2.43,1.521-5.22,2.37-8.29c0.15-0.55,0.3-1.1,0.45-1.649c0.51,0.93,1.04,1.859,1.59,2.79c1.04,1.76,2.12,3.41,3.19,4.899
				c1.149,1.601,2.25,2.88,3.34,3.9c1.53,1.43,3.01,2.12,4.52,2.12c1.03,0,2.05-0.32,3.05-0.96c0.98-0.63,1.69-1.431,2.12-2.37
				l0.98-2.11l-1.811-1.47c-1.92-1.561-3.569-3.1-4.89-4.57c-1.34-1.49-2.51-2.979-3.479-4.439c-1.021-1.521-1.96-3.061-2.811-4.57
				c-0.16-0.29-0.32-0.57-0.479-0.86c0.529-0.08,1.08-0.17,1.659-0.27c1.48-0.26,3-0.66,4.5-1.16c1.61-0.55,3.131-1.28,4.511-2.19
				C402.09,432.27,403.34,431,404.29,429.52z M337.61,418.15l5.56-5.061l-7.52-0.16c-1.44-0.029-2.91-0.12-4.36-0.27
				c-1.54-0.16-3.18-0.33-4.93-0.51c-1.841-0.181-3.931-0.271-6.23-0.271c-2.34,0-4.479,0.14-6.34,0.41
				c-2.14,0.32-3.85,0.87-5.22,1.69c-1.84,1.09-2.96,2.819-3.141,4.859l-0.34,3.92l3.87-0.71c1.31-0.24,2.53-0.41,3.63-0.51
				c1.12-0.11,2.42-0.2,3.851-0.26c0.239-0.011,0.489-0.021,0.75-0.03c-0.261,0.6-0.521,1.22-0.771,1.86
				c-0.93,2.279-1.85,4.6-2.71,6.87c-0.89,2.319-1.72,4.539-2.49,6.67c-0.779,2.13-1.439,3.979-1.979,5.55
				c-0.431,1.229-0.851,2.52-1.25,3.83c-0.471,1.58-0.7,2.939-0.7,4.17c0,1.7,0.53,3.22,1.53,4.399c1.14,1.33,2.91,2.011,5.26,2.011
				l3.68,0.069l-0.72-3.6v-0.521c0-0.869,0.08-1.79,0.26-2.72c0.19-1.03,0.46-2.189,0.8-3.45c0.37-1.35,0.78-2.88,1.23-4.56
				c1.32-4.811,2.65-9.2,3.95-13.03c1-2.91,1.91-5.479,2.739-7.64c0.04,0,0.08,0,0.131,0c0.42,0.02,0.84,0.03,1.229,0.03
				c1.74,0,3.42-0.15,5-0.431C334.34,420.4,336.1,419.52,337.61,418.15z M298.71,443.5l1.17-2.3l-5.73-4.101l-1.52,3.311
				c-0.7,1.54-1.66,3-2.86,4.33c-1.19,1.319-2.49,2.399-3.89,3.2c-1.23,0.699-2.4,1.04-3.57,1.04c-1.28,0-1.78-0.44-1.94-0.58
				c-0.59-0.511-1.02-1.2-1.3-2.101c-0.35-1.12-0.53-2.33-0.53-3.58c0-1.899,0.29-3.939,0.88-6.08c0.6-2.21,1.43-4.409,2.47-6.529
				c1.03-2.13,2.2-4.07,3.47-5.79c1.22-1.63,2.47-2.94,3.72-3.88c0.59-0.44,1.13-0.75,1.63-0.921c-0.03,0.08-0.06,0.171-0.09,0.261
				c-0.28,0.71-0.64,1.46-1.1,2.22c-0.49,0.83-1.02,1.63-1.55,2.37c-0.54,0.74-1.02,1.35-1.43,1.82l-1.29,1.46l0.81,1.779
				c0.45,0.98,1.09,1.721,1.89,2.19c0.74,0.43,1.52,0.66,2.33,0.66c1.05,0,2.63-0.351,4.19-2.021c0.84-0.91,1.61-2.029,2.27-3.34
				c0.63-1.25,1.14-2.57,1.52-3.93c0.39-1.45,0.58-2.73,0.58-3.94c0-3.09-1.3-4.729-2.4-5.569c-1.35-1.03-3.03-1.561-5.01-1.561
				c-2.33,0-4.69,0.66-7,1.94c-2.14,1.189-4.19,2.819-6.09,4.84c-1.84,1.97-3.51,4.24-4.95,6.76c-1.43,2.51-2.58,5.18-3.41,7.95
				c-0.85,2.82-1.28,5.68-1.28,8.49c0,2.279,0.37,4.5,1.1,6.6c0.81,2.32,2.14,4.25,3.96,5.73c1.94,1.579,4.42,2.38,7.4,2.38
				c2.65,0,5.16-0.65,7.46-1.94c2.15-1.2,4.12-2.83,5.85-4.83C296.12,447.92,297.55,445.79,298.71,443.5z M268.73,418.1l4.09-4.09
				l-5.7-0.99c-0.8-0.13-1.9-0.279-3.37-0.43c-1.4-0.149-2.93-0.28-4.61-0.42c-1.73-0.13-3.45-0.2-5.11-0.2
				c-3.65,0-6.36,0.38-8.28,1.16c-3.16,1.28-4.17,3.43-4.46,5l-0.79,4.3l4.3-0.81c1.13-0.22,2.17-0.39,3.11-0.5
				c0.93-0.12,1.95-0.21,3.05-0.271c0.02,0,0.04,0,0.07-0.01c-0.4,1.57-0.82,3.36-1.27,5.33c-0.44,1.97-0.92,4.03-1.43,6.18
				c-0.51,2.15-1.02,4.25-1.55,6.32c-0.51,2.01-1.05,3.91-1.6,5.66c-0.3,0.93-0.6,1.78-0.89,2.55c-0.74,0.04-1.46,0.11-2.14,0.21
				c-1.65,0.23-3.05,0.76-4.17,1.58c-0.98,0.72-2.2,2.11-2.48,4.67l-0.44,4.04l3.99-0.77c1.06-0.21,2.13-0.37,3.2-0.471
				c1.1-0.1,2.22-0.17,3.35-0.199c1.18-0.03,2.38-0.061,3.6-0.07c1.22-0.021,2.46-0.03,3.73-0.03c0.9,0,1.94-0.13,3.17-0.399
				c1.57-0.351,3.04-1.21,4.38-2.54l4.97-4.971l-7.03-0.149c-1.4-0.03-3-0.16-4.78-0.38c-0.11-0.021-0.23-0.03-0.35-0.051
				c0.59-1.42,1.12-3.08,1.59-4.96c0.33-1.319,0.69-2.899,1.06-4.71c0.37-1.779,0.75-3.66,1.14-5.64c0.38-1.98,0.75-3.88,1.1-5.73
				c0.36-1.85,0.66-3.489,0.92-4.93c0.04-0.25,0.09-0.49,0.13-0.72h2.72c0.85,0,1.81-0.11,2.85-0.33
				C266.22,420.04,267.55,419.29,268.73,418.1z M233.75,428.3c0.74-2.51,1.11-4.81,1.11-6.85c0-2.51-0.51-4.41-1.55-5.811
				c-1.54-2.08-3.23-2.51-4.38-2.51c-1.05,0-2.09,0.36-3.1,1.08c-0.86,0.61-1.6,1.46-2.28,2.61l-1.95,3.359l-2.08,0.29
				c-0.28-1.87-0.85-3.5-1.71-4.859c-1.53-2.44-3.94-3.73-6.97-3.73c-1.64,0-3.21,0.36-4.67,1.07c-1.38,0.66-2.61,1.56-3.67,2.66
				c-1.04,1.08-1.87,2.279-2.47,3.56c-0.65,1.39-0.98,2.82-0.98,4.25c0,1.59,0.46,3,1.36,4.22c0.76,1.021,2.25,2.24,5.05,2.24H209
				c-0.33,1.48-0.71,2.96-1.14,4.43c-0.59,2.011-1.2,3.971-1.8,5.82c-0.62,1.91-1.14,3.67-1.56,5.22c-0.47,1.771-0.7,3.221-0.7,4.42
				c0,1.82,0.52,3.311,1.53,4.431c0.85,0.93,1.88,1.59,3.04,1.96c0.96,0.31,1.8,0.45,2.56,0.45c1.94,0,3.96-0.73,6.01-2.181
				c1.73-1.22,3.47-2.859,5.19-4.859c1.66-1.931,3.27-4.12,4.78-6.5c1.5-2.36,2.85-4.84,4.02-7.37
				C232.11,433.16,233.06,430.67,233.75,428.3z"/>
			<path fill="#432C1E" d="M438.94,337.76c4.39,4.391,6.31,15.25,6.229,21.2c-0.04,2.94-0.21,5.46-0.52,7.63
				c-1.66,11.8-7.15,13.26-15.29,14.41c-2.71,0.38-5.771,0.82-9.07,1.9c-1.12,0.38-2.29,0.819-3.54,1.279
				c-4.33,1.61-9.23,3.44-14.65,3.44c-3.729,0-7.02-1.18-9.92-2.22c-1.449-0.521-2.819-1.011-4.17-1.341
				c-2.09,0.21-4.06,0.311-5.88,0.311c-3.87,0-7.22-0.47-10.12-1.4c-3.12-1-5.71-2.54-7.81-4.649c-3.48-3.53-5.47-8.45-6.03-14.96
				c-0.12-1.41-0.17-2.9-0.16-4.46c0.08-9.44,2.771-17.391,7.19-21.25c7.12-6.23,24.8-12.12,36.39-12.12
				c3.061,0,6.41,0.37,9.811,0.989C422.78,328.61,434.79,333.61,438.94,337.76z M440.17,358.89c0.04-2.63-0.36-5.89-1.06-8.939
				c-0.86-3.72-2.17-7.12-3.7-8.65c-3.78-3.77-16.29-8.6-27.09-10.22c-2.36-0.35-4.641-0.55-6.73-0.55
				c-11.13,0-27.5,5.989-33.1,10.88c-2.221,1.939-3.92,5.75-4.8,10.45c-0.421,2.199-0.65,4.6-0.681,7.09
				c-0.01,1.649,0.07,3.16,0.21,4.59c0.521,4.99,2.011,8.71,4.53,11.26c2.03,2.04,4.77,3.38,8.33,4.05
				c2.04,0.391,4.36,0.561,6.97,0.511c-0.49-2.351-0.609-5.74-0.5-10.101c0.03-1.54,0.101-3.2,0.19-4.99
				c0.069-1.35,0.149-2.77,0.24-4.25c0.01-0.159,0.02-0.319,0.029-0.489c0.08-1.29,0.16-2.62,0.16-3c0-2.21,1.8-4,4-4
				s3.98,1.77,4,3.96c0,0.02,0,0.029,0,0.04c0,0.609-0.06,1.62-0.17,3.5c-0.02,0.39-0.05,0.87-0.09,1.399
				c-0.05,0.9-0.11,1.971-0.17,3.141c-0.26,4.97-0.45,11.64,0.25,13.56c0.2,0.55,0.26,1.11,0.22,1.65c0.9,0.29,1.78,0.6,2.65,0.91
				c2.77,0.989,5.38,1.93,8.239,1.93c4.521,0,8.78-1.59,12.91-3.13c0.48-0.181,0.94-0.351,1.4-0.521c-0.11-0.529-0.12-1.08,0-1.649
				c0.55-2.551,0.479-7.29,0.229-11.78c-0.12-2.14-0.279-4.21-0.439-5.96c-0.12-1.34-0.24-2.5-0.34-3.35
				c-0.261-2.19,1.31-4.171,3.51-4.431s4.18,1.32,4.43,3.51c0.04,0.28,0.11,0.931,0.2,1.83c0.2,1.971,0.5,5.2,0.68,8.7
				c0.181,3.71,0.24,7.71-0.09,10.851c1.43-0.261,2.79-0.46,4.07-0.641c6.43-0.91,9.83-1.399,11.02-9.649
				C439.97,364.4,440.13,361.94,440.17,358.89z"/>
			<path fill="#E0C291" d="M439.11,349.95c0.699,3.05,1.1,6.31,1.06,8.939c-0.04,3.051-0.2,5.511-0.49,7.511
				c-1.189,8.25-4.59,8.739-11.02,9.649c-1.28,0.181-2.641,0.38-4.07,0.641c0.33-3.141,0.271-7.141,0.09-10.851
				c-0.18-3.5-0.479-6.729-0.68-8.7C428.84,355.36,433.89,353,439.11,349.95z"/>
			<path fill="#CDA57C" d="M435.41,341.3c1.53,1.53,2.84,4.931,3.7,8.65c-5.221,3.05-10.271,5.41-15.11,7.189
				c-0.09-0.899-0.16-1.55-0.2-1.83c-0.25-2.189-2.229-3.77-4.43-3.51s-3.771,2.24-3.51,4.431c0.1,0.85,0.22,2.01,0.34,3.35
				c-9.42,2.41-17.931,2.689-25.29,1.85c0.04-0.529,0.07-1.01,0.09-1.399c0.11-1.88,0.17-2.891,0.17-3.5c0-0.011,0-0.021,0-0.04
				c-0.02-2.19-1.8-3.96-4-3.96s-4,1.79-4,4c0,0.38-0.08,1.71-0.16,3c-0.01,0.17-0.02,0.33-0.029,0.489
				c-9.181-2.21-15.841-5.909-19.29-8.159c0.88-4.7,2.579-8.511,4.8-10.45c5.6-4.891,21.97-10.88,33.1-10.88
				c2.09,0,4.37,0.2,6.73,0.55C419.12,332.7,431.63,337.53,435.41,341.3z"/>
			<path fill="#6A473E" d="M434.01,192.1c7.391,13.94,1.3,33.13-15.17,47.76c-0.46,0.41-1.05,0.63-1.66,0.63
				c-0.109,0-0.22-0.01-0.33-0.02c-0.729-0.1-1.369-0.51-1.77-1.13l-23.6-36.58c-0.75-1.16-0.41-2.71,0.75-3.46
				c0.029-0.02,0.06-0.03,0.09-0.04c1.149-0.67,2.64-0.34,3.359,0.79l21.99,34.07c12.89-12.59,17.8-28.6,11.92-39.68
				c-3.22-6.09-7.71-10-13.33-11.61c-7.12-2.05-15.91-0.36-24.76,4.74c-0.64,0.37-1.38,0.42-2.04,0.2
				c-0.56-0.19-1.06-0.56-1.38-1.11c-0.69-1.2-0.28-2.73,0.92-3.42c10.04-5.79,20.21-7.64,28.64-5.22
				C424.62,180.03,430.13,184.76,434.01,192.1z"/>
			<path fill="#E0C291" d="M429.59,194.44c5.88,11.08,0.97,27.09-11.92,39.68l-21.99-34.07c-0.72-1.13-2.21-1.46-3.359-0.79
				c-1.141-2.89-2.2-6.1-2.86-11.49c0.66,0.22,1.4,0.17,2.04-0.2c8.85-5.1,17.64-6.79,24.76-4.74
				C421.88,184.44,426.37,188.35,429.59,194.44z"/>
			<path fill="#E0C291" d="M416.64,365.54c0.25,4.49,0.32,9.229-0.229,11.78c-0.12,0.569-0.11,1.12,0,1.649
				c-0.46,0.17-0.92,0.34-1.4,0.521c-4.13,1.54-8.39,3.13-12.91,3.13c-2.859,0-5.47-0.94-8.239-1.93
				c-0.87-0.311-1.75-0.62-2.65-0.91c0.04-0.54-0.02-1.101-0.22-1.65c-0.7-1.92-0.51-8.59-0.25-13.56
				c0.06-1.17,0.12-2.24,0.17-3.141c7.359,0.84,15.87,0.561,25.29-1.85C416.36,361.33,416.52,363.4,416.64,365.54z"/>
			<path fill="#1A3060" d="M405.84,423.85c0,2.141-0.53,4.051-1.55,5.67c-0.95,1.48-2.2,2.75-3.72,3.75
				c-1.38,0.91-2.9,1.641-4.511,2.19c-1.5,0.5-3.02,0.9-4.5,1.16c-0.579,0.1-1.13,0.189-1.659,0.27
				c0.159,0.29,0.319,0.57,0.479,0.86c0.851,1.51,1.79,3.05,2.811,4.57c0.97,1.46,2.14,2.949,3.479,4.439
				c1.32,1.471,2.97,3.01,4.89,4.57l1.811,1.47l-0.98,2.11c-0.43,0.939-1.14,1.74-2.12,2.37c-1,0.64-2.02,0.96-3.05,0.96
				c-1.51,0-2.989-0.69-4.52-2.12c-1.09-1.021-2.19-2.3-3.34-3.9c-1.07-1.489-2.15-3.14-3.19-4.899c-0.55-0.931-1.08-1.86-1.59-2.79
				c-0.15,0.55-0.3,1.1-0.45,1.649c-0.85,3.07-1.649,5.86-2.37,8.29l-0.64,2.141h-2.24c-1.41,0-2.71-0.4-3.87-1.19
				c-1.479-1.01-2.3-2.51-2.3-4.21c0-0.67,0.13-1.39,0.39-2.19c0.16-0.479,0.301-0.93,0.42-1.329c0.79-2.511,1.591-4.94,2.381-7.24
				c0.77-2.25,1.529-4.42,2.27-6.51c0.74-2.101,1.521-4.21,2.3-6.261c0.78-2.04,1.62-4.13,2.48-6.21c-1.34,0.561-2.41,0.45-3.66-0.3
				c-0.5-0.3-0.94-0.66-1.32-1.08c-0.89-0.95-1.08-1.93-1.08-2.57v-1.989l1.83-0.78c0.87-0.36,1.87-0.76,3.05-1.2
				c1.261-0.46,2.641-0.859,4.12-1.17c3.04-0.66,6.36-0.71,9.69,0.08c1.72,0.41,3.33,1.06,4.79,1.93c1.59,0.95,2.89,2.21,3.88,3.73
				C405.3,419.74,405.84,421.67,405.84,423.85z M396.62,422.84c0-0.71-0.101-1.68-0.561-2.24c-0.47-0.56-1.069-0.96-1.84-1.22
				c-0.439-0.14-0.89-0.26-1.359-0.34c-0.75,1.7-1.511,3.64-2.271,5.78c-0.57,1.62-1.13,3.279-1.68,4.989
				c0.06-0.02,0.12-0.04,0.18-0.05c1.51-0.399,2.9-0.95,4.141-1.67c1.09-0.63,1.93-1.39,2.579-2.32
				C396.35,424.98,396.62,424.02,396.62,422.84z"/>
			<path fill="#FFFFFF" d="M396.06,420.6c0.46,0.561,0.561,1.53,0.561,2.24c0,1.18-0.271,2.141-0.811,2.93
				c-0.649,0.931-1.489,1.69-2.579,2.32c-1.24,0.72-2.631,1.271-4.141,1.67c-0.06,0.01-0.12,0.03-0.18,0.05
				c0.55-1.71,1.109-3.369,1.68-4.989c0.76-2.141,1.521-4.08,2.271-5.78c0.47,0.08,0.92,0.2,1.359,0.34
				C394.99,419.64,395.59,420.04,396.06,420.6z"/>
			<path fill="#E0C291" d="M383.05,379.36c-2.609,0.05-4.93-0.12-6.97-0.511c-3.561-0.67-6.3-2.01-8.33-4.05
				c-2.52-2.55-4.01-6.27-4.53-11.26c-0.14-1.43-0.22-2.94-0.21-4.59c0.03-2.49,0.26-4.891,0.681-7.09
				c3.449,2.25,10.109,5.949,19.29,8.159c-0.091,1.48-0.171,2.9-0.24,4.25c-0.09,1.79-0.16,3.45-0.19,4.99
				C382.44,373.62,382.56,377.01,383.05,379.36z"/>
			<path fill="#040000" d="M379.24,163.02v47.51c0,0-13.8,18.15-76.23,19.01c-24.05,0.33-41.19-2.42-53.16-5.91l0.08-0.29V182.6
				v-23.69l51.4,18.72l77.91-28.16V163.02z"/>
			<path fill="#6D4B42" d="M356.07,363.31l0.93,3.631c-14.74,3.8-35.99,9.93-53.56,17.59c-0.311,0.14-0.65,0.21-1,0.21H302
				c-0.34,0-0.68-0.07-1-0.21c-17.01-7.41-31.8-13.24-48.67-17.59l0.91-3.54l0.34-1.311c16.93,4.37,31.74,10.17,48.65,17.521
				c17.71-7.63,38.829-13.73,53.52-17.521L356.07,363.31z"/>
			<path fill="#432C1E" d="M353.92,269.29c0.03,0.47,0.04,0.95,0.04,1.43c0,3.47-0.8,6.65-2.13,9.13c1.31-2.47,2.1-5.64,2.1-9.09
				c0-0.43-0.01-0.85-0.04-1.27c0-0.05-0.01-0.1-0.01-0.15C353.89,269.32,353.91,269.31,353.92,269.29z"/>
			<path fill="#432C1E" d="M353.88,269.34c0,0.05,0.01,0.1,0.01,0.15c-0.06,0.02-0.109,0.03-0.17,0.04
				C353.78,269.47,353.83,269.41,353.88,269.34z"/>
			<path fill="#6A473E" d="M351.31,315.22c1.761,7.28-0.359,15.44-5.819,22.4c-4.87,6.22-16.57,16.52-40.88,17.28v0.04l-2.5,0.01
				l-2.62-0.05c-24.38-0.74-36.1-11.051-40.98-17.271c-5.45-6.97-7.58-15.13-5.82-22.41c2.33-9.66,11.52-25.83,46.7-27.3v-0.14
				l2.62,0.06l2.49-0.07l0.01,0.15C339.78,289.35,348.98,305.55,351.31,315.22z M341.55,334.54c4.45-5.67,6.28-12.45,4.9-18.14
				c-3.53-14.65-19.3-23.021-44.391-23.561H302h-0.06c-25.09,0.54-40.851,8.91-44.391,23.561c-1.38,5.689,0.46,12.47,4.9,18.14
				c4.47,5.71,15.55,15.3,39.45,15.4h0.199C326,349.84,337.08,340.25,341.55,334.54z"/>
			<path fill="#432C1E" d="M349.16,283.28c0.25-0.21,0.49-0.44,0.72-0.68C349.65,282.84,349.41,283.07,349.16,283.28z"/>
			<path fill="#E0C291" d="M346.45,316.4c1.38,5.689-0.45,12.47-4.9,18.14c-4.47,5.71-15.55,15.3-39.45,15.4H301.9
				c-23.9-0.101-34.98-9.69-39.45-15.4c-4.44-5.67-6.28-12.45-4.9-18.14c3.54-14.65,19.3-23.021,44.391-23.561H302h0.06
				C327.15,293.38,342.92,301.75,346.45,316.4z M330,326.24c0.38-1.33-0.38-2.71-1.7-3.101c-1.34-0.38-2.72,0.38-3.1,1.7
				c-1.24,4.24-3.2,6.771-5.82,7.521c-4.81,1.38-11.57-2.99-14.66-5.49v-5.48c0-0.14-0.02-0.27-0.04-0.409
				c5.69-2.08,10.58-11.65,8.78-13.881c-2.41-2.989-20.4-3.229-22.87,0.28c-1.98,2.79,3.69,11.07,9.22,13.39
				c-0.05,0.2-0.09,0.41-0.09,0.62v5.48c-3.09,2.5-9.85,6.87-14.66,5.49c-2.62-0.75-4.57-3.28-5.81-7.521
				c-0.39-1.32-1.77-2.08-3.1-1.7c-1.33,0.391-2.09,1.771-1.7,3.101c1.75,6,4.86,9.68,9.24,10.93c1.09,0.311,2.2,0.45,3.31,0.45
				c6.12,0,12.33-4.14,15.22-6.36c2.9,2.221,9.11,6.36,15.221,6.36c1.119,0,2.229-0.14,3.31-0.45
				C325.14,335.92,328.25,332.24,330,326.24z"/>
			<path fill="#1A3060" d="M343.17,413.09l-5.56,5.061c-1.511,1.369-3.271,2.25-5.23,2.609c-1.58,0.28-3.26,0.431-5,0.431
				c-0.39,0-0.81-0.011-1.229-0.03c-0.051,0-0.091,0-0.131,0c-0.829,2.16-1.739,4.729-2.739,7.64c-1.3,3.83-2.63,8.22-3.95,13.03
				c-0.45,1.68-0.86,3.21-1.23,4.56c-0.34,1.261-0.609,2.42-0.8,3.45c-0.18,0.93-0.26,1.851-0.26,2.72v0.521l0.72,3.6l-3.68-0.069
				c-2.35,0-4.12-0.681-5.26-2.011c-1-1.18-1.53-2.699-1.53-4.399c0-1.23,0.229-2.59,0.7-4.17c0.399-1.311,0.819-2.601,1.25-3.83
				c0.54-1.57,1.2-3.42,1.979-5.55c0.771-2.131,1.601-4.351,2.49-6.67c0.86-2.271,1.78-4.591,2.71-6.87
				c0.25-0.641,0.51-1.261,0.771-1.86c-0.261,0.01-0.511,0.02-0.75,0.03c-1.431,0.06-2.73,0.149-3.851,0.26
				c-1.1,0.1-2.32,0.27-3.63,0.51l-3.87,0.71l0.34-3.92c0.181-2.04,1.301-3.77,3.141-4.859c1.37-0.82,3.08-1.37,5.22-1.69
				c1.86-0.271,4-0.41,6.34-0.41c2.3,0,4.39,0.09,6.23,0.271c1.75,0.18,3.39,0.35,4.93,0.51c1.45,0.149,2.92,0.24,4.36,0.27
				L343.17,413.09z"/>
			<path fill="#040000" d="M340.33,258.23c-0.47,0.41-0.92,0.88-1.33,1.4C339.41,259.1,339.86,258.63,340.33,258.23z"/>
			<path fill="#040000" d="M338.69,260.04c-0.101,0.14-0.2,0.28-0.301,0.42C338.49,260.32,338.59,260.18,338.69,260.04z"/>
			<path fill="#040000" d="M337.55,261.92c-0.09,0.17-0.17,0.34-0.25,0.51C337.38,262.26,337.46,262.09,337.55,261.92z"/>
			<path fill="#040000" d="M337.3,262.43c-0.08,0.18-0.149,0.35-0.229,0.53C337.14,262.78,337.22,262.61,337.3,262.43z"/>
			<path fill="#040000" d="M337.07,262.96c-0.221,0.54-0.42,1.1-0.601,1.68C336.64,264.05,336.84,263.5,337.07,262.96z"/>
			<polygon fill="#6A473E" points="335.77,72.84 205.63,135.31 143.72,112.76 302,62.01 			"/>
			<path fill="#040000" d="M335.66,268.82c0.13-1.48,0.399-2.88,0.81-4.18c-0.39,1.3-0.66,2.71-0.79,4.19
				C335.67,268.83,335.67,268.82,335.66,268.82z"/>
			<path fill="#6A473E" d="M328.3,323.14c1.32,0.391,2.08,1.771,1.7,3.101c-1.75,6-4.86,9.68-9.25,10.93
				c-1.08,0.311-2.19,0.45-3.31,0.45c-6.11,0-12.32-4.14-15.221-6.36c-2.89,2.221-9.1,6.36-15.22,6.36c-1.11,0-2.22-0.14-3.31-0.45
				c-4.38-1.25-7.49-4.93-9.24-10.93c-0.39-1.33,0.37-2.71,1.7-3.101c1.33-0.38,2.71,0.38,3.1,1.7c1.24,4.24,3.19,6.771,5.81,7.521
				c4.81,1.38,11.57-2.99,14.66-5.49v-5.48c0-0.21,0.04-0.42,0.09-0.62c-5.53-2.319-11.2-10.6-9.22-13.39
				c2.47-3.51,20.46-3.27,22.87-0.28c1.8,2.23-3.09,11.801-8.78,13.881c0.021,0.14,0.04,0.27,0.04,0.409v5.48
				c3.09,2.5,9.851,6.87,14.66,5.49c2.62-0.75,4.58-3.28,5.82-7.521C325.58,323.52,326.96,322.76,328.3,323.14z"/>
			<path fill="#1A3060" d="M299.88,441.2l-1.17,2.3c-1.16,2.29-2.59,4.42-4.24,6.34c-1.73,2-3.7,3.63-5.85,4.83
				c-2.3,1.29-4.81,1.94-7.46,1.94c-2.98,0-5.46-0.801-7.4-2.38c-1.82-1.48-3.15-3.41-3.96-5.73c-0.73-2.1-1.1-4.32-1.1-6.6
				c0-2.811,0.43-5.67,1.28-8.49c0.83-2.771,1.98-5.44,3.41-7.95c1.44-2.52,3.11-4.79,4.95-6.76c1.9-2.021,3.95-3.65,6.09-4.84
				c2.31-1.28,4.67-1.94,7-1.94c1.98,0,3.66,0.53,5.01,1.561c1.1,0.84,2.4,2.479,2.4,5.569c0,1.21-0.19,2.49-0.58,3.94
				c-0.38,1.359-0.89,2.68-1.52,3.93c-0.66,1.311-1.43,2.43-2.27,3.34c-1.56,1.67-3.14,2.021-4.19,2.021
				c-0.81,0-1.59-0.23-2.33-0.66c-0.8-0.47-1.44-1.21-1.89-2.19l-0.81-1.779l1.29-1.46c0.41-0.471,0.89-1.08,1.43-1.82
				c0.53-0.74,1.06-1.54,1.55-2.37c0.46-0.76,0.82-1.51,1.1-2.22c0.03-0.09,0.06-0.181,0.09-0.261c-0.5,0.171-1.04,0.48-1.63,0.921
				c-1.25,0.939-2.5,2.25-3.72,3.88c-1.27,1.72-2.44,3.66-3.47,5.79c-1.04,2.12-1.87,4.319-2.47,6.529
				c-0.59,2.141-0.88,4.181-0.88,6.08c0,1.25,0.18,2.46,0.53,3.58c0.28,0.9,0.71,1.59,1.3,2.101c0.16,0.14,0.66,0.58,1.94,0.58
				c1.17,0,2.34-0.341,3.57-1.04c1.4-0.801,2.7-1.881,3.89-3.2c1.2-1.33,2.16-2.79,2.86-4.33l1.52-3.311L299.88,441.2z"/>
			<path fill="#1A3060" d="M272.82,414.01l-4.09,4.09c-1.18,1.19-2.51,1.94-3.93,2.23c-1.04,0.22-2,0.33-2.85,0.33h-2.72
				c-0.04,0.229-0.09,0.47-0.13,0.72c-0.26,1.44-0.56,3.08-0.92,4.93c-0.35,1.851-0.72,3.75-1.1,5.73
				c-0.39,1.979-0.77,3.86-1.14,5.64c-0.37,1.811-0.73,3.391-1.06,4.71c-0.47,1.88-1,3.54-1.59,4.96
				c0.12,0.021,0.24,0.03,0.35,0.051c1.78,0.22,3.38,0.35,4.78,0.38l7.03,0.149l-4.97,4.971c-1.34,1.33-2.81,2.189-4.38,2.54
				c-1.23,0.27-2.27,0.399-3.17,0.399c-1.27,0-2.51,0.01-3.73,0.03c-1.22,0.01-2.42,0.04-3.6,0.07c-1.13,0.029-2.25,0.1-3.35,0.199
				c-1.07,0.101-2.14,0.261-3.2,0.471l-3.99,0.77l0.44-4.04c0.28-2.56,1.5-3.95,2.48-4.67c1.12-0.82,2.52-1.35,4.17-1.58
				c0.68-0.1,1.4-0.17,2.14-0.21c0.29-0.77,0.59-1.62,0.89-2.55c0.55-1.75,1.09-3.65,1.6-5.66c0.53-2.07,1.04-4.17,1.55-6.32
				c0.51-2.149,0.99-4.21,1.43-6.18c0.45-1.97,0.87-3.76,1.27-5.33c-0.03,0.01-0.05,0.01-0.07,0.01c-1.1,0.061-2.12,0.15-3.05,0.271
				c-0.94,0.11-1.98,0.28-3.11,0.5l-4.3,0.81l0.79-4.3c0.29-1.57,1.3-3.72,4.46-5c1.92-0.78,4.63-1.16,8.28-1.16
				c1.66,0,3.38,0.07,5.11,0.2c1.68,0.14,3.21,0.271,4.61,0.42c1.47,0.15,2.57,0.3,3.37,0.43L272.82,414.01z"/>
			<path fill="#432C1E" d="M243.69,338.1c4.39,4.391,6.32,15.25,6.24,21.2c-0.02,1.47-0.08,2.82-0.16,4.09
				c-1.04,15.061-6.77,16.7-15.66,17.95c-0.14,0.021-0.29,0.04-0.43,0.061c-2.6,0.369-5.51,0.819-8.63,1.84
				c-1.13,0.38-2.3,0.819-3.54,1.279c-4.33,1.61-9.24,3.44-14.66,3.44c-3.72,0-7.02-1.18-9.92-2.22c-1.45-0.521-2.82-1.01-4.17-1.34
				c-2.08,0.21-4.06,0.31-5.88,0.31c-8.02,0-13.89-1.979-17.92-6.06c-2.96-2.98-4.84-6.971-5.68-12.08
				c-0.37-2.23-0.54-4.66-0.52-7.33c0.09-9.44,2.77-17.391,7.19-21.25c4.63-4.05,13.74-7.96,22.72-10.2
				c4.83-1.2,9.62-1.92,13.67-1.92C219.64,325.87,238.3,332.71,243.69,338.1z M244.93,359.23c0.03-2.11-0.22-4.631-0.69-7.12
				c-0.82-4.4-2.3-8.69-4.08-10.471c-4.6-4.6-22.16-10.77-33.82-10.77c-3.55,0-7.64,0.61-11.75,1.61
				c-8.74,2.109-17.54,5.939-21.35,9.27c-2.48,2.17-4.32,6.7-5.08,12.18c-0.24,1.71-0.38,3.511-0.4,5.36
				c-0.02,2.65,0.17,5,0.57,7.09c0.71,3.75,2.09,6.65,4.18,8.76c3.19,3.21,8.14,4.71,15.29,4.561c-0.63-3.021-0.65-7.74-0.36-14.021
				c0.05-1.08,0.11-2.21,0.18-3.39c0.04-0.79,0.09-1.59,0.14-2.42c0.08-1.29,0.17-2.62,0.17-3c0-2.21,1.79-4,4-4s4,1.79,4,4
				c0,0.61-0.06,1.62-0.18,3.5c-0.05,0.82-0.12,1.99-0.2,3.35c-0.03,0.53-0.05,1.09-0.08,1.67c-0.24,4.91-0.4,11.221,0.27,13.08
				c0.2,0.55,0.26,1.11,0.22,1.65c0.9,0.29,1.79,0.6,2.65,0.91c2.77,0.989,5.38,1.93,8.24,1.93c4.52,0,8.78-1.59,12.91-3.13
				c0.48-0.18,0.94-0.35,1.4-0.521c-0.11-0.529-0.11-1.079,0.01-1.649c0.34-1.55,0.44-3.9,0.42-6.51c-0.02-2.17-0.13-4.5-0.28-6.71
				c-0.06-0.891-0.12-1.74-0.19-2.561c-0.17-2.18-0.36-4.07-0.51-5.31c-0.26-2.19,1.31-4.17,3.51-4.431
				c2.2-0.26,4.18,1.32,4.43,3.511c0.06,0.449,0.21,1.85,0.39,3.779c0.12,1.351,0.26,2.971,0.37,4.71
				c0.27,4.221,0.42,9.17,0.03,12.891c1.43-0.261,2.79-0.46,4.07-0.641c7.18-1.01,10.58-1.5,11.35-12.81
				C244.85,362.27,244.91,360.84,244.93,359.23z"/>
			<path fill="#6A473E" d="M249.93,182.6v40.74l-0.08,0.29c-19.1-5.59-25.08-13.1-25.08-13.1v-47.39v-13.4l25.16,9.17V182.6z"/>
			<path fill="#E0C291" d="M244.24,352.11c0.47,2.489,0.72,5.01,0.69,7.12c-0.02,1.609-0.08,3.039-0.17,4.35
				c-0.77,11.31-4.17,11.8-11.35,12.81c-1.28,0.181-2.64,0.38-4.07,0.641c0.39-3.721,0.24-8.67-0.03-12.891
				c-0.11-1.739-0.25-3.359-0.37-4.71C233.84,357.62,238.95,355.22,244.24,352.11z"/>
			<path fill="#CDA57C" d="M240.16,341.64c1.78,1.78,3.26,6.07,4.08,10.471c-5.29,3.109-10.4,5.51-15.3,7.319
				c-0.18-1.93-0.33-3.33-0.39-3.779c-0.25-2.19-2.23-3.771-4.43-3.511c-2.2,0.261-3.77,2.24-3.51,4.431
				c0.15,1.239,0.34,3.13,0.51,5.31c-2.37,0.61-4.68,1.09-6.94,1.44c-6.8,1.08-13.05,1.06-18.63,0.399
				c0.08-1.359,0.15-2.529,0.2-3.35c0.12-1.88,0.18-2.89,0.18-3.5c0-2.21-1.79-4-4-4s-4,1.79-4,4c0,0.38-0.09,1.71-0.17,3
				c-0.05,0.83-0.1,1.63-0.14,2.42c-9.42-2.31-16.16-6.16-19.46-8.36c0.76-5.479,2.6-10.01,5.08-12.18
				c3.81-3.33,12.61-7.16,21.35-9.27c4.11-1,8.2-1.61,11.75-1.61C218,330.87,235.56,337.04,240.16,341.64z"/>
			<path fill="#1A3060" d="M234.86,421.45c0,2.04-0.37,4.34-1.11,6.85c-0.69,2.37-1.64,4.86-2.82,7.4
				c-1.17,2.53-2.52,5.01-4.02,7.37c-1.51,2.38-3.12,4.569-4.78,6.5c-1.72,2-3.46,3.64-5.19,4.859c-2.05,1.45-4.07,2.181-6.01,2.181
				c-0.76,0-1.6-0.141-2.56-0.45c-1.16-0.37-2.19-1.03-3.04-1.96c-1.01-1.12-1.53-2.61-1.53-4.431c0-1.199,0.23-2.649,0.7-4.42
				c0.42-1.55,0.94-3.31,1.56-5.22c0.6-1.85,1.21-3.81,1.8-5.82c0.43-1.47,0.81-2.949,1.14-4.43h-3.54c-2.8,0-4.29-1.22-5.05-2.24
				c-0.9-1.22-1.36-2.63-1.36-4.22c0-1.43,0.33-2.86,0.98-4.25c0.6-1.28,1.43-2.479,2.47-3.56c1.06-1.101,2.29-2,3.67-2.66
				c1.46-0.71,3.03-1.07,4.67-1.07c3.03,0,5.44,1.29,6.97,3.73c0.86,1.359,1.43,2.989,1.71,4.859c0.15,0.92,0.22,1.91,0.22,2.95
				c0,2.05-0.23,4.21-0.69,6.43c-0.43,2.11-0.97,4.24-1.6,6.341c-0.62,2.05-1.25,4.04-1.88,5.899c-0.6,1.79-1.1,3.46-1.5,4.95
				c-0.07,0.26-0.13,0.51-0.19,0.76c0.79-0.71,1.61-1.59,2.46-2.66c1.18-1.479,2.35-3.17,3.47-5.029c1.13-1.87,2.16-3.851,3.07-5.88
				c0.89-2.021,1.62-4.021,2.15-5.94c0.5-1.81,0.76-3.48,0.76-4.97c0-1.46-0.25-1.91-0.25-1.91c-0.11-0.16-0.15-0.18-0.2-0.19
				l-3.74-1.04l1.95-3.359c0.68-1.15,1.42-2,2.28-2.61c1.01-0.72,2.05-1.08,3.1-1.08c1.15,0,2.84,0.43,4.38,2.51
				C234.35,417.04,234.86,418.94,234.86,421.45z M209.85,422.94c0-1.091-0.04-2.131-0.11-3.08c-0.02-0.24-0.05-0.431-0.08-0.58
				c-0.01,0.01-0.02,0.02-0.03,0.02c-0.3,0.26-0.55,0.601-0.77,1.05c-0.29,0.601-0.49,1.23-0.62,1.9c-0.14,0.74-0.21,1.42-0.21,2.03
				c0,0.33,0.02,0.62,0.07,0.87c0.05,0.27,0.11,0.5,0.18,0.699l0.99,2.721c0.01-0.061,0.02-0.13,0.04-0.2
				C209.67,426.49,209.85,424.66,209.85,422.94z"/>
			<path fill="#FFFFFF" d="M225.54,421.41c0,0,0.25,0.45,0.25,1.91c0,1.489-0.26,3.16-0.76,4.97c-0.53,1.92-1.26,3.92-2.15,5.94
				c-0.91,2.029-1.94,4.01-3.07,5.88c-1.12,1.859-2.29,3.55-3.47,5.029c-0.85,1.07-1.67,1.95-2.46,2.66
				c0.06-0.25,0.12-0.5,0.19-0.76c0.4-1.49,0.9-3.16,1.5-4.95c0.63-1.859,1.26-3.85,1.88-5.899c0.63-2.101,1.17-4.23,1.6-6.341
				c0.46-2.22,0.69-4.38,0.69-6.43c0-1.04-0.07-2.03-0.22-2.95l2.08-0.29l3.74,1.04C225.39,421.23,225.43,421.25,225.54,421.41z"/>
			<path fill="#E0C291" d="M221.59,371.15c0.02,2.609-0.08,4.96-0.42,6.51c-0.12,0.57-0.12,1.12-0.01,1.649
				c-0.46,0.171-0.92,0.341-1.4,0.521c-4.13,1.54-8.39,3.13-12.91,3.13c-2.86,0-5.47-0.94-8.24-1.93
				c-0.86-0.311-1.75-0.62-2.65-0.91c0.04-0.54-0.02-1.101-0.22-1.65c-0.67-1.859-0.51-8.17-0.27-13.08
				c0.03-0.58,0.05-1.14,0.08-1.67c5.58,0.66,11.83,0.681,18.63-0.399c2.26-0.351,4.57-0.83,6.94-1.44
				c0.07,0.82,0.13,1.67,0.19,2.561C221.46,366.65,221.57,368.98,221.59,371.15z"/>
			<path fill="#432C1E" d="M220.73,155.82l-1.51,2.41l-2.75,4.36c-17.32-10.89-38.44-6.99-52.43,3.8c-0.15,0.11-0.3,0.22-0.45,0.34
				v-9.69C179.84,146.88,202.13,144.13,220.73,155.82z"/>
			<path fill="#6A473E" d="M215.32,183.24c1.19,0.69,1.6,2.22,0.91,3.42c-0.3,0.52-0.76,0.88-1.28,1.08
				c-0.68,0.25-1.46,0.22-2.13-0.17c-8.85-5.1-17.65-6.79-24.76-4.74c-5.63,1.61-10.11,5.52-13.34,11.61
				c-5.87,11.08-0.96,27.09,11.93,39.68l21.98-34.07c0.68-1.05,2.01-1.42,3.12-0.92c0.12,0.05,0.23,0.1,0.34,0.17
				c1.16,0.75,1.49,2.3,0.74,3.46l-23.6,36.58c-0.39,0.62-1.04,1.03-1.76,1.13c-0.11,0.01-0.23,0.02-0.34,0.02
				c-0.61,0-1.2-0.22-1.66-0.63c-16.46-14.63-22.56-33.82-15.17-47.76c3.89-7.34,9.4-12.07,16.37-14.08
				C195.1,175.6,205.28,177.45,215.32,183.24z"/>
			<path fill="#E0C291" d="M212.82,187.57c0.67,0.39,1.45,0.42,2.13,0.17c-0.77,5.33-1.98,8.38-3.2,11.39
				c-1.11-0.5-2.44-0.13-3.12,0.92l-21.98,34.07c-12.89-12.59-17.8-28.6-11.93-39.68c3.23-6.09,7.71-10,13.34-11.61
				C195.17,180.78,203.97,182.47,212.82,187.57z"/>
			<path fill="#FFFFFF" d="M209.74,419.86c0.07,0.949,0.11,1.989,0.11,3.08c0,1.72-0.18,3.55-0.54,5.43
				c-0.02,0.07-0.03,0.14-0.04,0.2l-0.99-2.721c-0.07-0.199-0.13-0.43-0.18-0.699c-0.05-0.25-0.07-0.54-0.07-0.87
				c0-0.61,0.07-1.29,0.21-2.03c0.13-0.67,0.33-1.3,0.62-1.9c0.22-0.449,0.47-0.79,0.77-1.05c0.01,0,0.02-0.01,0.03-0.02
				C209.69,419.43,209.72,419.62,209.74,419.86z"/>
			<path fill="#432C1E" d="M194.01,321.78l-2.84,1.71l-4.02,2.399c-0.54-0.909-12.99-22.1-9.79-55.47
				c-2.39-1.28-4.69-2.67-6.89-4.14v-9.9c0.15,0.12,0.31,0.22,0.45,0.34c3.81,2.95,7.97,5.58,12.48,7.81l2.54,1.25l-0.33,2.81
				C181.75,300.69,193.89,321.57,194.01,321.78z"/>
			<path fill="#E0C291" d="M187.8,379.7c-7.15,0.149-12.1-1.351-15.29-4.561c-2.09-2.109-3.47-5.01-4.18-8.76
				c-0.4-2.09-0.59-4.439-0.57-7.09c0.02-1.85,0.16-3.65,0.4-5.36c3.3,2.2,10.04,6.051,19.46,8.36c-0.07,1.18-0.13,2.31-0.18,3.39
				C187.15,371.96,187.17,376.68,187.8,379.7z"/>
			<path fill="#040000" d="M165.47,226.96v45.62h-7.93v-46.04c0,0-1.93-8.53-9.05-8.84c2.25-2.94,4.76-4.93,6.33-6
				C157.68,213.66,163.69,218.65,165.47,226.96z"/>
			<polygon fill="#040000" points="158.59,126.37 158.59,206.23 155.49,206.23 154.82,205.84 154.14,206.23 151.05,206.23 
				151.05,126.37 			"/>
			<path fill="#6A473E" d="M157.54,226.54v46.04h-13.38v-45.62c0.81-3.76,2.48-6.83,4.33-9.26
				C155.61,218.01,157.54,226.54,157.54,226.54z"/>
			<path fill="#432C1E" d="M146.11,211.23c0.04,0.47,0.09,0.93,0.14,1.4c-2.43,2.67-4.84,6.23-6.27,10.71
				c-4.12-16.91-1.89-34.66,6.07-48.42v27.98c-0.14,2.39-0.15,4.82,0,7.25v1.08H146.11z"/>
		</g>
	</g>
</g>
</svg>
